<svg xmlns="http://www.w3.org/2000/svg" viewBox="0 0 431.49 486">
  <g id="Layer_2" data-name="Layer 2">
    <g id="Layer_1-2" data-name="Layer 1">
      <g>
        <path d="M413.82,297.86A27.35,27.35,0,0,0,402.94,276a27.42,27.42,0,0,0-17.11-48.85h-.39a27.41,27.41,0,0,0-24.16-34.54,27.46,27.46,0,0,0-16.14-37,27.42,27.42,0,0,0-12.35-44.8,27.43,27.43,0,0,0-14-37.41,27.44,27.44,0,0,0-26.18-35.6,27.6,27.6,0,0,0-6.53.78,27.43,27.43,0,0,0-25.79-18.1,28.12,28.12,0,0,0-6.2.7,27.42,27.42,0,0,0-52.17-4,27.42,27.42,0,0,0-48.08,16.31A27.48,27.48,0,0,0,119,53.67a27.42,27.42,0,0,0-24.29,48.58,27.43,27.43,0,0,0-12.74,45.33c-.76-.06-1.54-.09-2.32-.09a27.42,27.42,0,0,0-17.66,48.39,27.42,27.42,0,0,0-19.86,26.36,27.91,27.91,0,0,0,.37,4.51,27.42,27.42,0,0,0-18.4,51.33,27.42,27.42,0,0,0,5.33,48.16,27.42,27.42,0,1,0,36,41.36c7.09,3.17,12.53,2.12,12.53,2.12S282.79,400,342.25,364.53a105.56,105.56,0,0,0,9.19-6.14,27.42,27.42,0,1,0,42.15-34.07A27.42,27.42,0,0,0,413.82,297.86Z" style="fill: #5a1221"/>
        <path d="M354.52,326.79A19,19,0,0,0,347,311.63a19,19,0,0,0-11.86-33.85h-.27a18.74,18.74,0,0,0,.67-5,19,19,0,0,0-17.42-18.94,19,19,0,0,0-11.18-25.63,19,19,0,0,0-8.56-31.05,19,19,0,0,0-9.71-25.93,19,19,0,0,0-18.14-24.67,19.31,19.31,0,0,0-4.53.54,19,19,0,0,0-17.88-12.54,19.59,19.59,0,0,0-4.29.48,19,19,0,0,0-36.16-2.73,19,19,0,0,0-33.32,11.3,19,19,0,0,0-24.17,13.94,19,19,0,0,0-16.84,33.67,19,19,0,0,0-8.83,31.42c-.53,0-1.06-.07-1.61-.07a19,19,0,0,0-12.24,33.54,19,19,0,0,0-13.5,21.4,18.78,18.78,0,0,0-4.46-.53,19,19,0,0,0-8.3,36.1,19,19,0,0,0,3.7,33.38A19,19,0,1,0,113,375.13a15.87,15.87,0,0,0,8.68,1.47s142,21,183.23-3.6a73.45,73.45,0,0,0,6.37-4.26,19,19,0,1,0,29.22-23.61A19,19,0,0,0,354.52,326.79Z" style="fill: #3d141c"/>
        <path d="M431.4,486H.09c-.55-19.85,1.49-37,5.5-51.79q1.61-5.9,3.6-11.3a117.48,117.48,0,0,1,19.45-34.27C50.22,362.27,80.53,349,107,340.2l1.28-.42c4.52-1.48,8.93-2.83,13.15-4.09,9-2.7,17.19-5,23.93-7.33,2.06-.72,4-1.44,5.78-2.17,1.08-.44,2.11-.9,3.08-1.36.47-.22.93-.45,1.37-.68a35.23,35.23,0,0,0,9.11-6.69c7.1-7.25,10.18-16.9,11.13-26.55a89.71,89.71,0,0,0-1-22.92,106.76,106.76,0,0,0-3.88-16.13h89.61s-8.52,24.47-3.83,46c1.58,7.24,4.67,14.16,10.09,19.68a35.24,35.24,0,0,0,9.07,6.65l.36.18.69.34a83.62,83.62,0,0,0,9.41,3.76c9.19,3.16,21,6.29,34,10.42,4.69,1.5,9.53,3.13,14.43,4.94l.94.34c21.21,7.92,43.67,19.28,61.51,38.09a115.7,115.7,0,0,1,18.68,26.14,124.15,124.15,0,0,1,7.61,17.88C429.07,442.8,432.06,462.48,431.4,486Z" style="fill: #bc525c"/>
        <path d="M431.4,486H.09c-.55-19.85,1.49-37,5.5-51.79q1.61-5.9,3.6-11.3L15,418.79s271,15.58,275.92,15.58c3.87,0,89-18.25,125-26a124.15,124.15,0,0,1,7.61,17.88C429.07,442.8,432.06,462.48,431.4,486Z" style="fill: #fdbd50"/>
        <path d="M314,155.58a121.22,121.22,0,0,1-.77,13.55C307,224.34,263.94,279.67,211.75,279.67c-43.44,0-80.55-38.34-95.36-83a136.26,136.26,0,0,1-6.08-27.3c-.07-.55-.13-1.11-.18-1.66a120,120,0,0,1-.63-12.1c0-59.3,45.78-107.38,102.25-107.38S314,96.28,314,155.58Z" style="fill: #fdbd50"/>
        <path d="M315,199.18s-2.09-40.65-15.65-62.47,3.37,71.35,3.37,71.35Z" style="fill: #3d141c"/>
        <path d="M119.68,208.07l-3.29-2.39a140.81,140.81,0,0,1-6.08-27.78c-.07-.57-.13-1.13-.18-1.69,2.21-12.91,6.12-28.56,12.92-39.5C136.61,114.89,119.68,208.07,119.68,208.07Z" style="fill: #3d141c"/>
        <circle cx="125.96" cy="204.65" r="23.97" transform="translate(-111.31 242.7) rotate(-67.5)" style="fill: #bc525c"/>
        <circle cx="125.96" cy="204.65" r="14.97" transform="translate(-68.73 63.78) rotate(-22.5)" style="fill: #a1414d"/>
        <circle cx="298.03" cy="204.89" r="23.97" style="fill: #bc525c"/>
        <circle cx="298.03" cy="204.89" r="14.97" style="fill: #a1414d"/>
        <path d="M256.72,297.82a37.64,37.64,0,0,1-20.39,11.36c-27.08,5.66-48.39-7.62-60.48-18.27a89.71,89.71,0,0,0-1-22.92c7.65-6.51,17.43-11.82,27.82-16.13h57.91S252,276.33,256.72,297.82Z" style="fill: #a1414d"/>
        <path d="M304.92,168.2c0,.55,0,1.11,0,1.66q-.07,5.8-.69,11.66c-5.67,54.27-44.91,108.68-92.46,108.68s-86.69-54.27-92.44-108.47q-.48-4.46-.64-8.9c-.06-1.55-.09-3.09-.09-4.63,0-58.3,41.71-105.57,93.17-105.57S304.92,109.9,304.92,168.2Z" style="fill: #bc525c"/>
        <path d="M240.24,160.57c.31-.28,7.75-6.94,20.14-.54a3.65,3.65,0,1,0,3.35-6.49c-8.86-4.57-16.05-3.94-20.52-2.6a20.49,20.49,0,0,0-8,4.34s-3.37,2.93-1.09,5.27c2.55,2.62,6.14,0,6.14,0Z" style="fill: #341724"/>
        <ellipse cx="170.53" cy="177.02" rx="6.17" ry="10.71" style="fill: #341724"/>
        <ellipse cx="251.09" cy="176.78" rx="6.17" ry="10.71" style="fill: #341724"/>
        <path d="M179.78,161.09c-.37-.21-9.08-5.08-19.78,3.86a3.65,3.65,0,1,1-4.68-5.6c7.64-6.39,14.8-7.34,19.46-7a20.61,20.61,0,0,1,8.75,2.49s3.93,2.13,2.21,4.91c-1.91,3.11-6,1.33-6,1.33Z" style="fill: #341724"/>
        <path d="M194.22,198.44s8.28-24.58,14.85-24.1S231.46,206,231.46,206Z" style="fill: #a1414d"/>
        <path d="M304.9,180.54a105.74,105.74,0,0,1-.69,10.63,119.35,119.35,0,0,1-5,22.85c-.51,1.6-1.06,3.2-1.63,4.78-.18.5-.37,1-.56,1.49s-.43,1.13-.65,1.69c-.5,1.27-1,2.52-1.56,3.76s-1.1,2.5-1.68,3.73h0l-.55,1.15c-.24.49-.47,1-.71,1.45a124.25,124.25,0,0,1-20.25,29.4,99.28,99.28,0,0,1-23.58,18.79,73.66,73.66,0,0,1-36.31,9.93,71.27,71.27,0,0,1-27.36-5.57A90.68,90.68,0,0,1,158.46,268a117.72,117.72,0,0,1-21.21-25.73.21.21,0,0,1,0-.06l-1-1.57c-1.48-2.48-2.87-5-4.19-7.6-.32-.65-.65-1.3-1-2-1.65-3.38-3.16-6.85-4.51-10.37a121.66,121.66,0,0,1-7.29-29.32c-.32-2.71-.53-5.42-.64-8.11,6,7.08,17.58,17.89,34.67,21.27,14.9,3,37.56-13.15,58.17-12.9a42.85,42.85,0,0,1,9.22,1.16c.83.18,1.65.39,2.46.62,1.15.32,2.28.67,3.4,1h0c.78.26,1.56.53,2.33.82h0c11.88,4.33,22.62,10.72,34.91,8.53C278.17,201.25,289.67,187.8,304.9,180.54Z" style="fill: #f1d6cd"/>
        <g style="opacity: 0.12">
          <path d="M108,486H95c1.89-16.9,5.36-46,6.74-46.37S106,466.22,108,486Z" style="fill: #010101"/>
        </g>
        <g style="opacity: 0.12">
          <polygon points="360.14 486 348.07 486 352.18 439.63 360.14 486" style="fill: #010101"/>
        </g>
        <path d="M120.67,187.4s28.2.2,19.54-50c0,0,44.45-11,47.34-47.33,0,0,19.62,26,63.78,8.37,0,0-.86,26.84,28.86,29.15,0,0-8.94,43.29,24.82,53.11,0,0,10.39-41.56-21.35-83.41s-88-49.94-127-15.88S113,161.22,120.67,187.4Z" style="fill: #5a1221"/>
        <path d="M136.82,210.4a1.93,1.93,0,0,1,1-1.45,1.9,1.9,0,0,1,2.08.12l26.09,19.17a1.91,1.91,0,0,1-.81,3.42l-23.84,4.1a1.92,1.92,0,0,1-2.22-1.7l-2.25-23.27A1.28,1.28,0,0,1,136.82,210.4Zm23.23,18.26-19-14,1.64,17Z" style="fill: #fdbd50"/>
        <path d="M179.1,221.62a1.9,1.9,0,0,1-.59-3.25l24.75-20.87a1.91,1.91,0,0,1,3.14,1.58l-1.6,24.14a1.89,1.89,0,0,1-.71,1.35,1.86,1.86,0,0,1-1.47.41l-23.14-3.26A1.64,1.64,0,0,1,179.1,221.62Zm23.19-18.3-18,15.21,16.87,2.38Z" style="fill: #fdbd50"/>
        <path d="M259.62,227.69a1.92,1.92,0,0,1-1.18-1.27,1.89,1.89,0,0,1,.6-2l24.75-20.87a1.91,1.91,0,0,1,3.14,1.59l-1.61,24.13a1.89,1.89,0,0,1-2.17,1.76L260,227.78A2.34,2.34,0,0,1,259.62,227.69Zm23.2-18.31-18.05,15.21L281.64,227Z" style="fill: #fdbd50"/>
        <path d="M227.21,240.15a1.91,1.91,0,0,1-1.74-.08,1.93,1.93,0,0,1-.95-1.85L227.7,206a1.88,1.88,0,0,1,1.33-1.63,1.91,1.91,0,0,1,2,.58l15.69,18.41a2,2,0,0,1,.44,1.47,1.93,1.93,0,0,1-.77,1.32L227.55,240A1.68,1.68,0,0,1,227.21,240.15Zm3.85-29.3-2.32,23.49,13.75-10.06Z" style="fill: #fdbd50"/>
        <path d="M174.1,266.12a1.91,1.91,0,0,1-2.69-1.92L174.59,232a1.91,1.91,0,0,1,3.36-1l15.68,18.41a1.92,1.92,0,0,1,.44,1.46,1.89,1.89,0,0,1-.77,1.32l-18.86,13.81A1.86,1.86,0,0,1,174.1,266.12ZM178,236.83l-2.31,23.49,13.75-10.07Z" style="fill: #fdbd50"/>
        <path d="M236.21,270.78a1.91,1.91,0,0,1-1.53,2.93l-32.35,1.43a1.92,1.92,0,0,1-1.51-3.18l16-18.13a2,2,0,0,1,1.39-.65,1.92,1.92,0,0,1,1.41.58L236,270.47A1.89,1.89,0,0,1,236.21,270.78Zm-29.55.34,23.58-1L218.33,257.9Z" style="fill: #fdbd50"/>
        <path d="M241.49,245.13a1.91,1.91,0,0,1,1.88-2.72L275.64,245a1.91,1.91,0,0,1,1.11,3.34l-18.12,16a1.94,1.94,0,0,1-1.46.47,1.87,1.87,0,0,1-1.33-.75l-14.15-18.6A1.68,1.68,0,0,1,241.49,245.13Zm29.36,3.32-23.53-1.89,10.32,13.56Z" style="fill: #fdbd50"/>
        <g style="opacity: 0.12">
          <path d="M258.82,217.94s-51,20.86-91.22,4.88C167.6,222.82,198,272.55,258.82,217.94Z" style="fill: #010101"/>
        </g>
        <path d="M121.45,335.69v84.54H107v-80l1.28-.42C112.82,338.3,117.23,337,121.45,335.69Z" style="fill: #f79446"/>
        <path d="M334.74,343.79v75H320.31V338.85C325,340.35,329.84,342,334.74,343.79Z" style="fill: #f79446"/>
        <path d="M423.48,426.24c-182.22,53-368.16,18.88-417.89,8a120.63,120.63,0,0,1,23.05-45.57c195.26,41.5,324.37,8.57,368.55-6.42A117.66,117.66,0,0,1,423.48,426.24Z" style="fill: #f79446"/>
      </g>
    </g>
  </g>
</svg>
