<svg xmlns="http://www.w3.org/2000/svg" xmlns:xlink="http://www.w3.org/1999/xlink" viewBox="0 0 306.7 192.57"><defs><style>.cls-1,.cls-18,.cls-2{fill:none;}.cls-2{stroke:#755e69;stroke-width:0.45px;}.cls-18,.cls-2{stroke-miterlimit:10;}.cls-3{opacity:0.5;}.cls-4{fill:#fcfaf1;}.cls-5{fill:#febf9f;}.cls-6{fill:#b06d6a;}.cls-7{fill:#fcb091;}.cls-8{fill:#f9401d;}.cls-9{fill:#f69b77;}.cls-10{fill:#5f462e;}.cls-11{fill:#ae8448;}.cls-12{fill:url(#Motivo_nuevo_5);}.cls-13{fill:#eec84e;}.cls-14{fill:#8ec1c2;}.cls-15{fill:#d7f5f6;}.cls-16{fill:#abe2d9;}.cls-17{fill:#c4f6ec;}.cls-17,.cls-18{opacity:0.6;}.cls-18{stroke:#c4f6ec;stroke-linecap:round;stroke-width:1.3px;}.cls-19{fill:#185442;}.cls-20{fill:#f97f23;}.cls-21{fill:#d55d1e;}.cls-22{fill:#a0b481;}.cls-23{fill:#0b683e;}.cls-24{fill:#e6ccc5;}.cls-25{fill:#f0e5e0;}.cls-26{fill:#494c8e;}.cls-27{fill:#fff;}</style><pattern id="Motivo_nuevo_5" data-name="Motivo nuevo 5" width="80" height="80" patternTransform="translate(-154.33 -108.1) scale(0.92)" patternUnits="userSpaceOnUse" viewBox="0 0 80 80"><rect class="cls-1" width="80" height="80"/><line class="cls-2" x1="52.95" y1="78.04" x2="52.95" y2="173.4"/><line class="cls-2" x1="30.18" y1="78.04" x2="30.18" y2="173.4"/><line class="cls-2" x1="18.79" y1="78.04" x2="18.79" y2="173.4"/><line class="cls-2" x1="7.4" y1="78.04" x2="7.4" y2="173.4"/><line class="cls-2" x1="75.72" y1="78.04" x2="75.72" y2="173.4"/><line class="cls-2" x1="64.33" y1="78.04" x2="64.33" y2="173.4"/><line class="cls-2" x1="41.56" y1="78.04" x2="41.56" y2="173.4"/><line class="cls-2" x1="73.88" y1="34.34" x2="169.24" y2="34.34"/><line class="cls-2" x1="73.88" y1="57.11" x2="169.24" y2="57.11"/><line class="cls-2" x1="73.88" y1="68.49" x2="169.24" y2="68.49"/><line class="cls-2" x1="73.88" y1="79.88" x2="169.24" y2="79.88"/><line class="cls-2" x1="73.88" y1="11.57" x2="169.24" y2="11.57"/><line class="cls-2" x1="73.88" y1="22.95" x2="169.24" y2="22.95"/><line class="cls-2" x1="73.88" y1="45.72" x2="169.24" y2="45.72"/><line class="cls-2" x1="-6.12" y1="34.34" x2="89.24" y2="34.34"/><line class="cls-2" x1="-6.12" y1="57.11" x2="89.24" y2="57.11"/><line class="cls-2" x1="-6.12" y1="68.49" x2="89.24" y2="68.49"/><line class="cls-2" x1="-6.12" y1="79.88" x2="89.24" y2="79.88"/><line class="cls-2" x1="-6.12" y1="11.57" x2="89.24" y2="11.57"/><line class="cls-2" x1="-6.12" y1="22.95" x2="89.24" y2="22.95"/><line class="cls-2" x1="-6.12" y1="45.72" x2="89.24" y2="45.72"/><line class="cls-2" x1="52.95" y1="-1.96" x2="52.95" y2="93.4"/><line class="cls-2" x1="30.18" y1="-1.96" x2="30.18" y2="93.4"/><line class="cls-2" x1="18.79" y1="-1.96" x2="18.79" y2="93.4"/><line class="cls-2" x1="7.4" y1="-1.96" x2="7.4" y2="93.4"/><line class="cls-2" x1="75.72" y1="-1.96" x2="75.72" y2="93.4"/><line class="cls-2" x1="64.33" y1="-1.96" x2="64.33" y2="93.4"/><line class="cls-2" x1="41.56" y1="-1.96" x2="41.56" y2="93.4"/><line class="cls-2" x1="-86.12" y1="34.34" x2="9.24" y2="34.34"/><line class="cls-2" x1="-86.12" y1="57.11" x2="9.24" y2="57.11"/><line class="cls-2" x1="-86.12" y1="68.49" x2="9.24" y2="68.49"/><line class="cls-2" x1="-86.12" y1="79.88" x2="9.24" y2="79.88"/><line class="cls-2" x1="-86.12" y1="11.57" x2="9.24" y2="11.57"/><line class="cls-2" x1="-86.12" y1="22.95" x2="9.24" y2="22.95"/><line class="cls-2" x1="-86.12" y1="45.72" x2="9.24" y2="45.72"/><line class="cls-2" x1="73.88" y1="-0.12" x2="169.24" y2="-0.12"/><line class="cls-2" x1="-6.12" y1="-0.12" x2="89.24" y2="-0.12"/><line class="cls-2" x1="52.95" y1="-81.96" x2="52.95" y2="13.4"/><line class="cls-2" x1="30.18" y1="-81.96" x2="30.18" y2="13.4"/><line class="cls-2" x1="18.79" y1="-81.96" x2="18.79" y2="13.4"/><line class="cls-2" x1="7.4" y1="-81.96" x2="7.4" y2="13.4"/><line class="cls-2" x1="75.72" y1="-81.96" x2="75.72" y2="13.4"/><line class="cls-2" x1="64.33" y1="-81.96" x2="64.33" y2="13.4"/><line class="cls-2" x1="41.56" y1="-81.96" x2="41.56" y2="13.4"/><line class="cls-2" x1="-86.12" y1="-0.12" x2="9.24" y2="-0.12"/></pattern></defs><title>Fichier 2</title><g id="Calque_2" data-name="Calque 2"><g id="OBJECTS"><g class="cls-3"><path class="cls-4" d="M249.87,129.2c-3.82,2.83-8.74,5.81-8.76,10.91a13.56,13.56,0,0,0,1.26,5c4.5,11.33,10.06,22.25,12.87,34.23a63.72,63.72,0,0,1,1.5,9.79H10c-6.15-6-11.51-14.16-9.33-22.63,2.86-11.17,17.1-15.23,19.43-26.56,2.29-11.12-8.44-20.8-8.74-32.21-.19-7.34,4.18-14.14,9.83-18s12.38-5.14,19-5.69A95.33,95.33,0,0,1,67,85.62c10,2,20,5.64,30.06,4.3a21.37,21.37,0,0,0,11.15-4.6c4.2-3.58,6.63-9.16,8.34-14.73,4.72-15.33,5.32-32.46,13.13-46.15,10.1-17.7,30.7-25.57,49.49-23.35s35.93,13,50.91,25.75C244.72,39.31,258.33,54.7,264,74.19S265.22,117.84,249.87,129.2Z"/></g><path class="cls-5" d="M261.5,90.32c-7,5.47-16.19,9.65-24.73,12.72-2.46-9.3-4.62-18.66-6.23-28.11a57.27,57.27,0,0,0,20.85-8.57c10.45-7.12,24.35-33.41,27.83-40.2.18-.36.35-.72.53-1.07h0s2.7-7.14,3.06-8.22a92.91,92.91,0,0,0,2-9.39s2-.65,2.31,3.87,1.11,3.18,1.11,3.18S296.42,2.18,298.77,2.7c.88.2,0,3-1.42,4.64a32.72,32.72,0,0,0-2.84,4.15s8-8.84,10.15-7.8c0,0,1.07.68-1.49,3.31a63.09,63.09,0,0,0-5.88,7s8.11-7,9.16-6.49c1.75.94-6.46,8.13-7.69,10.62,0,0,6.07-5.73,6.42-4.12s-6.61,7.57-9.76,15.66c-.23.79-.53,1.7-.88,2.72h0S286.24,71,261.5,90.32Z"/><path d="M287.81,15.14a14.79,14.79,0,0,1,2.68,2.74,13,13,0,0,1,1.06,1.63,5.44,5.44,0,0,1,.67,2l-1-.39a4.62,4.62,0,0,1,1.59-.9,4.29,4.29,0,0,1,1.77-.23,4.21,4.21,0,0,1,1.68.46,5.13,5.13,0,0,1,1.34,1,8.42,8.42,0,0,0-1.53-.48,5,5,0,0,0-1.48-.1A4.76,4.76,0,0,0,292,22l-.84.78L291,21.59a5.65,5.65,0,0,0-.53-1.56c-.25-.54-.53-1.08-.84-1.61C289.06,17.34,288.42,16.27,287.81,15.14Z"/><path d="M200.53,46.45c0,6.14-4.46,11.11-10,11.11s-9.95-5-9.95-11.11,4.45-11.12,9.95-11.12S200.53,40.31,200.53,46.45Z"/><path d="M183.13,50.8s14.29-11.75,5.2-37.54C182.41-3.51,147.56,44.23,183.13,50.8Z"/><path class="cls-5" d="M147.51,21.76C149.1,11.69,159.14-5.16,177,5.21c5.6,3.26,8,9.21,9.13,15.39.8,4.31-.73,46.66-.73,46.66-1.51,17-27,21-27.87.33l1.05-14.15C145.63,49.3,145.72,33.08,147.51,21.76Z"/><path class="cls-6" d="M158.55,53.44s7.3,2.45,21.06-6.11a46.31,46.31,0,0,1-21.74,16Z"/><path class="cls-7" d="M181.9,35.69a7.43,7.43,0,1,1-7.43-7.43A7.43,7.43,0,0,1,181.9,35.69Z"/><path class="cls-7" d="M155.13,30.58a7.43,7.43,0,0,0-7.43-7.43h-.4A52.79,52.79,0,0,0,147.08,38c.2,0,.41,0,.62,0A7.43,7.43,0,0,0,155.13,30.58Z"/><path class="cls-5" d="M194.28,26.81a5.48,5.48,0,1,1-6.62-4A5.47,5.47,0,0,1,194.28,26.81Z"/><path d="M186.42,29.63a3.07,3.07,0,0,1,.63-1.56A3.2,3.2,0,0,1,188.47,27a2.35,2.35,0,0,1,1.89.14,2.37,2.37,0,0,1,1.13,1.29,8.32,8.32,0,0,0-1.44-.41,2.33,2.33,0,0,0-1.18.11A13,13,0,0,0,186.42,29.63Z"/><path d="M157.71,35.33c.69.3,1.26.65,1.83.88a3.94,3.94,0,0,0,1.58.39,3.61,3.61,0,0,0,1.55-.4,16.57,16.57,0,0,0,1.73-1,3.49,3.49,0,0,1-1,2,3.22,3.22,0,0,1-2.24,1,3.28,3.28,0,0,1-2.22-.92A4.08,4.08,0,0,1,157.71,35.33Z"/><path d="M159.6,19.31a3.92,3.92,0,0,1-.09,2,7.09,7.09,0,0,1-.76,1.79A11.25,11.25,0,0,1,156.29,26l-.09-.78a29.5,29.5,0,0,1,3.08,2.42,29.48,29.48,0,0,1-3.59-1.56l-.52-.27.43-.51c.37-.46.75-.95,1.13-1.41s.74-.95,1.08-1.44A12.26,12.26,0,0,0,159.6,19.31Z"/><path d="M165.61,21a15.68,15.68,0,0,0,.14,2.84c.14.89.5,1.71,1,1.82s1.2-.25,1.83-.89a17.45,17.45,0,0,0,1.78-2.2v0a.48.48,0,0,1,.67-.11.47.47,0,0,1,.17.56,9.32,9.32,0,0,1-1.6,2.73,5,5,0,0,1-1.31,1.12,2.5,2.5,0,0,1-2,.23,2.56,2.56,0,0,1-1.44-1.41,5,5,0,0,1-.38-1.68,9.55,9.55,0,0,1,.38-3.12.4.4,0,0,1,.5-.28.4.4,0,0,1,.29.4Z"/><path d="M150.41,19.24a24,24,0,0,0,0,2.69,5.71,5.71,0,0,0,.23,1.19c.12.36.29.52.38.52s.31,0,.6-.28a5.9,5.9,0,0,0,.83-.88c.52-.69,1-1.46,1.5-2.22v0a.48.48,0,0,1,.66-.16.48.48,0,0,1,.2.55,10.7,10.7,0,0,1-1.23,2.66,5.66,5.66,0,0,1-1,1.21,3.15,3.15,0,0,1-.79.5,1.76,1.76,0,0,1-2.11-.6,2.52,2.52,0,0,1-.4-.85,5.47,5.47,0,0,1-.17-1.57,10.73,10.73,0,0,1,.48-2.89.42.42,0,0,1,.51-.27.4.4,0,0,1,.28.4Z"/><path d="M172.06,17c-.11.7-1.22,1.11-2.47.92s-2.19-.93-2.08-1.64,1.22-1.12,2.47-.92S172.17,16.29,172.06,17Z"/><path d="M154.63,14.36c.25.67-.52,1.56-1.72,2s-2.36.21-2.6-.47.52-1.55,1.71-2S154.39,13.69,154.63,14.36Z"/><path d="M151.36,11.28S162.24,13.63,177,5.21c0,0-5.32,28.64,9,18.35a5.11,5.11,0,0,1,4.11-.89l.57.18S190.28,6.13,178.31,2,157.89-.24,151.36,11.28Z"/><polygon class="cls-5" points="78.54 94.2 83.98 77.29 96.59 81.59 96.02 96.2 78.54 94.2"/><path class="cls-8" d="M275.77,30.7s-15.25,30.82-28.32,36.93-46.81-3.12-56-2.72h0l-5.94-.13c-2.19,3.51-10.12,5.84-15.86,5.31-8.19-.76-11-4.25-11.77-7.06l-10.15-.76h0c-4.95-.43-13.28.53-21,8.58C123.78,73.91,110,89.8,94,110.59l4-14.2L76.17,93.72c-17.35,33.06-9.68,58.75.64,58.75,17.79,0,45.66-26.51,61-42.63l3.85,41.54,59,2-5.17-49.72c8.44,1.09,51.32,6,66.28-3.21,16.62-10.28,31.54-54.72,31.54-54.72Z"/><path d="M89.44,125.81c-.38-.09,1-6.65,3.38-14.54s4.94-14.09,5.31-14-1.55,6.51-3.94,14.38S89.83,125.91,89.44,125.81Z"/><path class="cls-9" d="M94.05,63.73c1-1.09,4-4.39,4.06-5.87,0-2.61-4.42,2.09-6.35,4.25A20.76,20.76,0,0,1,94.05,63.73Z"/><path class="cls-10" d="M75.42,42.28a2.12,2.12,0,0,1,3.48-.57c4.76,5.07,15.44,17.83,20.81,26.47,7.62,12.25,12.66,20.29,12.66,20.29l22.29,19.24s-9.43,5.16-17.79-2.32c-6.33-5.66-9.27-15.68-9.27-15.68S88.21,54.88,76,44.78a2.09,2.09,0,0,1-.57-2.5Z"/><path class="cls-5" d="M84.24,86.11c-1.36-5.49-1.46-14.39-1.53-17.72a5.24,5.24,0,0,1,3.08-4.91c5.08-2.93,15.39-5,15.77-3.61.32,1.19-8.59,4.07-8.59,4.07s11.09-1.82,8.9.7c-1.16,1.34-7.39,1.87-7.39,1.87s6.77.71,6.25,1.71c-.92,1.76-6.48,1.51-6.48,1.51S96.92,72,97.7,77.67c.57,4.14-7.92,12.38-7.92,12.38Z"/><path d="M88.93,70.92c-.06-.25,1.14-.76,2.7-.88.77-.07,1.47,0,1.89-.08s.6-.18.74-.13.08.14,0,.31a1.08,1.08,0,0,1-.56.47,6.63,6.63,0,0,1-2,.39C90.22,71.11,89,71.19,88.93,70.92Z"/><path d="M242.38,82.22c-.42,0-.68-3.14-2.29-6.55s-3.8-5.68-3.52-6c.13-.14.87.24,1.84,1.15a14.46,14.46,0,0,1,4.28,9.24C242.75,81.4,242.57,82.22,242.38,82.22Z"/><path d="M249.38,75.57c-.3.28-2.32-1.48-5.12-3.11s-5.32-2.56-5.22-3,2.94-.06,6,1.72S249.68,75.33,249.38,75.57Z"/><path d="M202.57,154.64c.11-.1.86.62,2.29,1.8a34.38,34.38,0,0,0,6.6,4.26,7.6,7.6,0,0,0,4.85,1,3.25,3.25,0,0,0,2-1.41,1.83,1.83,0,0,0,0-2.13,4.51,4.51,0,0,0-2.46-1.4,25,25,0,0,0-3.47-.55,39.89,39.89,0,0,0-7.58,0l0-2c1.88.1,3.86.14,5.87.08,1.49-.05,3-.14,4.41-.28s2.89-.3,4.19-.57a7.21,7.21,0,0,0,3.33-1.51,3.51,3.51,0,0,0,1.14-2.81,2,2,0,0,0-1.63-1.91,6.89,6.89,0,0,0-1.63-.23c-.57,0-1.14-.07-1.7,0a21.36,21.36,0,0,0-6.16,1,23.64,23.64,0,0,0-8,4.34c-1.67,1.4-2.48,2.34-2.61,2.23s.5-1.18,2.07-2.82a21.61,21.61,0,0,1,8.08-5.13,22,22,0,0,1,6.58-1.32c.6,0,1.22,0,1.85,0a8.72,8.72,0,0,1,2,.24,4.2,4.2,0,0,1,2.06,1.19,4,4,0,0,1,1,2.3,5.41,5.41,0,0,1-1.72,4.44,9,9,0,0,1-4.21,2,39.72,39.72,0,0,1-4.43.64c-1.49.15-3,.25-4.55.3-2.07.06-4.12,0-6.06-.1l0-2a40.43,40.43,0,0,1,8,.15,26.16,26.16,0,0,1,3.77.67,6.11,6.11,0,0,1,3.43,2.18,3.62,3.62,0,0,1,.64,2.11,3.67,3.67,0,0,1-.66,2,4.83,4.83,0,0,1-3.05,2,6.6,6.6,0,0,1-3.25-.22,13.3,13.3,0,0,1-2.58-1.14,27.58,27.58,0,0,1-6.47-4.92C203.05,155.6,202.48,154.72,202.57,154.64Z"/><polygon class="cls-11" points="141.62 148.62 137.14 186.13 224.95 186.13 200.62 150.63 141.62 148.62"/><polygon class="cls-4" points="141.62 148.62 200.79 150.45 203.14 154.8 179.77 155.16 191.37 186.15 137.14 186.13 141.62 148.62"/><polygon class="cls-12" points="141.62 148.62 200.79 150.45 203.14 154.8 179.77 155.16 191.37 186.15 137.14 186.13 141.62 148.62"/><rect class="cls-13" x="5.91" y="186.22" width="255.92" height="6.35"/><rect x="84.63" y="179.75" width="104.87" height="6.66"/><path d="M143,50.27s-.12.33-.46.87l-.64,1c-.25.39-.49.87-.79,1.4a29,29,0,0,0-1.48,24.31,26.52,26.52,0,0,0,4.56,7.48c2,2.34,4.42,4.71,5.93,7.87a18.23,18.23,0,0,1,1.84,9.8,11,11,0,0,1-1.57,4.63,9.27,9.27,0,0,1-3.5,3.14c-1.32.73-2.65,1.23-3.88,1.77a28.81,28.81,0,0,0-3.46,1.78,29.8,29.8,0,0,0-5.51,4.26,10.7,10.7,0,0,0-3,4.67,5.17,5.17,0,0,0,.51,4,4.17,4.17,0,0,0,1.91,1.79c.57.25.91.27.91.34a1.66,1.66,0,0,1-1-.06,4.23,4.23,0,0,1-2.29-1.77,5.72,5.72,0,0,1-.81-4.5,11.22,11.22,0,0,1,3.09-5.2,30.58,30.58,0,0,1,9.18-6.49c1.26-.57,2.55-1.09,3.75-1.76a8,8,0,0,0,3-2.73,9.51,9.51,0,0,0,1.33-4,17,17,0,0,0-1.73-9c-1.37-2.9-3.66-5.17-5.71-7.59a27.6,27.6,0,0,1-4.73-7.9A29.17,29.17,0,0,1,136.89,63a26.79,26.79,0,0,1,3.69-9.73c.34-.51.63-1,.91-1.35l.77-.92C142.68,50.48,142.92,50.24,143,50.27Z"/><path d="M94.55,144.71c.16-.16,1.2,2.22,2.72,6.26l.34.9-1-.17a45.75,45.75,0,0,1-10.38-3.18,6,6,0,0,1-3.09-2.41,3,3,0,0,1-.37-2.08,2.72,2.72,0,0,1,1.14-1.73,3.24,3.24,0,0,1,1.8-.55h.44l.35,0,.72.06a10,10,0,0,1,2.65.61,34,34,0,0,1,3.48,1.5c.85.42,1.26.69,1.18.75a3.73,3.73,0,0,1-1.38-.23l-3.59-1a10.12,10.12,0,0,0-2.42-.39l-.71,0-.37,0-.3,0a2,2,0,0,0-1.08.36,1.49,1.49,0,0,0-.31,2,4.77,4.77,0,0,0,2.43,1.78,61.9,61.9,0,0,0,10,3.39l-.63.74C95.05,147.5,94.4,144.88,94.55,144.71Z"/><path d="M163.53,144.71c.15.17-.5,2.79-1.65,6.62l-.63-.74a62.34,62.34,0,0,0,10-3.38c.28-.12.54-.24.77-.36a4.18,4.18,0,0,0,.68-.4,3.27,3.27,0,0,0,1-1,1.51,1.51,0,0,0-.29-2.05,3.16,3.16,0,0,0-2.39-.29c-.88.13-1.72.31-2.48.49-3.05.73-4.93,1.32-5,1.12s1.68-1.1,4.73-2.1a20.06,20.06,0,0,1,2.56-.68,7.23,7.23,0,0,1,1.56-.17,3.29,3.29,0,0,1,1.79.55,2.78,2.78,0,0,1,1.13,1.75,3.09,3.09,0,0,1-.39,2.07,6.06,6.06,0,0,1-3.09,2.4,46.73,46.73,0,0,1-10.37,3.18l-1,.16.34-.9C162.33,146.93,163.37,144.55,163.53,144.71Z"/><path class="cls-14" d="M94.76,138.16h69.67a0,0,0,0,1,0,0v29.45a12.23,12.23,0,0,1-12.23,12.23H107a12.23,12.23,0,0,1-12.23-12.23V138.16A0,0,0,0,1,94.76,138.16Z"/><rect class="cls-15" x="94.21" y="137.56" width="70.53" height="1.46"/><rect class="cls-16" x="33.46" y="121.35" width="28.84" height="55.78"/><rect class="cls-17" x="35.4" y="139" width="24.96" height="36.73"/><line class="cls-18" x1="36.9" y1="157.69" x2="58.62" y2="129.3"/><line class="cls-18" x1="36.98" y1="151.76" x2="55.98" y2="126.26"/><path class="cls-19" d="M31.59,134.75a76.68,76.68,0,0,1-5.24-14c-.85-3.73-4.73-20.3-6.1-18.28s1.49,11.51,2.84,15.83c1.09,3.48,4.76,13.87,4.76,13.87s-10.7-21-13.95-21.45,2.25,7.59,3.35,9.23c3.68,5.45,6.14,9,9.37,13.16,0,0-22.69-22.07-25.06-18.8s8.63,7.86,13.76,11.65c3.93,2.91,12.43,10,12.43,10s-1.21-2-5.6-4.92c-6.61-4.33-18.13-9.58-18.81-7.35-.92,3,5.53,4,11,6.16,12.27,4.72,13.69,9,13.69,9Z"/><path class="cls-20" d="M36.19,135s-3.13-4.43-8.31-.77-1.89,10.22-.29,12,16.06,16.75,18,20.41S54,180.1,56.12,179.33s.51-3.29-.36-9.65a38.46,38.46,0,0,0-7.64-18C44.28,146.94,36.19,135,36.19,135Z"/><path class="cls-21" d="M38.26,138.72a6,6,0,0,0-2,.92c-.61.37-1.19.79-1.77,1.2a8.3,8.3,0,0,1-3.64,1.67.74.74,0,0,0-.71.71.71.71,0,0,0,.71.71A9.08,9.08,0,0,0,35,142.2c.59-.4,1.16-.83,1.76-1.22.31-.2.63-.39.95-.58s.73-.34,1.07-.56a.62.62,0,0,0-.47-1.12Z"/><path class="cls-21" d="M43,145.06a1.8,1.8,0,0,0-1,.31c-.27.14-.54.3-.81.46-.5.3-1,.59-1.5.9l-3.09,1.92c-.77.48-.06,1.72.72,1.23l3.13-2L42,147c.51-.33,1.28-.72,1.49-1.33a.47.47,0,0,0-.44-.58Z"/><path class="cls-21" d="M48.3,152.66c-1,.57-1.91,1.25-2.86,1.9l-1.42,1a8.91,8.91,0,0,0-1.44,1.06.68.68,0,0,0,.82,1.06,11.27,11.27,0,0,0,1.36-.93l1.46-1A27.32,27.32,0,0,0,49,153.62c.53-.47-.15-1.3-.74-1Z"/><path class="cls-21" d="M53.3,162.15a4.22,4.22,0,0,0-1.27.68c-.37.22-.73.46-1.09.69l-1,.68a11.47,11.47,0,0,0-1.25.85.67.67,0,0,0,0,.9.69.69,0,0,0,.89.18,10.79,10.79,0,0,0,1.15-.75l1.07-.71c.35-.23.7-.46,1-.7a5,5,0,0,0,1.2-1,.56.56,0,0,0,0-.63.57.57,0,0,0-.59-.2Z"/><path class="cls-22" d="M65.14,179.62s19.24-19.23,6.41-20.83-19.23,10.15-19.23,10.15,13.89-18.7,1.6-20.84-10.15,33.66-10.15,33.66Z"/><path class="cls-23" d="M44.08,178s5.87-34.73-8.55-33.66-10.15,16.56-10.15,16.56-4.81-20.83-13.89-15.49,4.27,21.9,4.27,21.9S-2.4,158.79.27,166.27s18.16,15.49,18.16,15.49Z"/><path class="cls-24" d="M19.29,186.86H60.63a10.77,10.77,0,0,0,10.76-10.77H8.53A10.77,10.77,0,0,0,19.29,186.86Z"/><path class="cls-25" d="M29.26,178.26c0-4.15,3.36-12.38,7.52-12.38s7.52,8.23,7.52,12.38a7.52,7.52,0,0,1-15,0Z"/><path class="cls-25" d="M47.11,178.26c0-4.15,3.37-12.38,7.52-12.38s7.52,8.23,7.52,12.38a7.52,7.52,0,1,1-15,0Z"/><path class="cls-25" d="M65,178.26c0-4.15,3.36-12.38,7.52-12.38S80,174.11,80,178.26a7.52,7.52,0,0,1-15,0Z"/><path class="cls-26" d="M80.57,175.83H28.75a2.36,2.36,0,0,0-2.36,2.36c0,.82,0,1.63,0,2.44,0,.39,0,.79,0,1.18,0,.84,1,.54,1.54.54a1.45,1.45,0,0,1,1.4,1.11,4.42,4.42,0,0,0,4.29,3.4H40a4.41,4.41,0,0,0,4.29-3.4,1.45,1.45,0,0,1,1.41-1.11h.09a1.45,1.45,0,0,1,1.4,1.11,4.42,4.42,0,0,0,4.29,3.4h6.38a4.41,4.41,0,0,0,4.29-3.4,1.45,1.45,0,0,1,1.41-1.11h.09a1.45,1.45,0,0,1,1.4,1.11,4.42,4.42,0,0,0,4.29,3.4h6.38a4.41,4.41,0,0,0,4.29-3.4,1.45,1.45,0,0,1,1.41-1.11h1.23c.17,0,.3,0,.29-.2,0-.42,0-1.33,0-1.77v-2.2A2.37,2.37,0,0,0,80.57,175.83Z"/><path class="cls-27" d="M28.91,181c17.25-.42,34.5,0,51.75-.47a.4.4,0,0,0,0-.8c-17.25.42-34.5.06-51.75.48-.51,0-.51.81,0,.79Z"/></g></g></svg>