<svg xmlns="http://www.w3.org/2000/svg" xmlns:xlink="http://www.w3.org/1999/xlink" viewBox="0 0 199.03 165.3"><defs><style>.cls-1{fill:#2a443e;}.cls-2{fill:#f0e4d6;}.cls-3{fill:#ce4d35;}.cls-4{fill:#b23e2f;}.cls-5{fill:#ebada0;}.cls-6{fill:#c47c8a;}.cls-7{fill:#e0d1c3;}.cls-8{fill:#b77930;}.cls-9{fill:#8c3c1c;}.cls-10{fill:#ef7f9f;}.cls-11,.cls-13,.cls-16,.cls-18{fill:none;}.cls-11,.cls-18{stroke:#2a443e;}.cls-11,.cls-16{stroke-linecap:round;stroke-linejoin:round;}.cls-11,.cls-16,.cls-18{stroke-width:2px;}.cls-12{fill:#acb9a2;}.cls-12,.cls-14{opacity:0.5;}.cls-13,.cls-16{stroke:#acb9a2;}.cls-13,.cls-18{stroke-miterlimit:10;}.cls-15{fill:url(#Degradado_sin_nombre_20);}.cls-17{fill:#ca906a;}.cls-19{fill:#df9f70;}.cls-20{fill:#3a6b5f;}</style><linearGradient id="Degradado_sin_nombre_20" x1="132.28" y1="107.18" x2="151.5" y2="70.18" gradientTransform="matrix(-0.98, -0.2, -0.2, 0.98, 241.53, 43.13)" gradientUnits="userSpaceOnUse"><stop offset="0" stop-color="#fff"/><stop offset="1" stop-color="#fff" stop-opacity="0"/></linearGradient></defs><title>Fichier 1</title><g id="Calque_2" data-name="Calque 2"><g id="OBJECTS"><path class="cls-1" d="M138.72,61.74a.66.66,0,0,1-.61.45l-4.1.07a46.44,46.44,0,0,0,.14-9,.22.22,0,0,0-.43,0A55.71,55.71,0,0,1,132,62.29l-1.08,0a40.93,40.93,0,0,0,.23-4.6c0-.29-.19-.28-.22,0a37.89,37.89,0,0,1-.89,4.61l-6.93.09c.42-2.82.65-5.69.85-8.47,0-.29-.19-.29-.22,0a73.74,73.74,0,0,1-1.57,8.48c-11.44.13-22.91.17-34.36,0,0-1.48-.09-3-.06-4.42,0-.13-.17-.12-.18,0-.17,1.45-.43,2.94-.62,4.42l-1.86,0c0-.32,0-.64,0-1,0-2.37.52-4.66.34-7,0-.09-.14-.09-.15,0-.28,2.74-1,5.33-1.43,8l-4.07-.06a.61.61,0,0,1-.61-.58c.22-6.69-.78-15.23,3.13-21.2a20.85,20.85,0,0,1,6.77-6.21c4.11-2.55-2.5-17.47,10.25-29.72a12.35,12.35,0,0,1,8.51-3.48c14.59,0,23,12.94,23.33,22.27a29.22,29.22,0,0,1-1.29,9.38c-1.87,6.25,4.7,9.91,6.5,11.64C141.26,49.09,140.7,56,138.72,61.74Z"/><path class="cls-1" d="M139.53,47.28c-2.46-4.59-8.37-6.58-8.45-12.32,0-2.56.4-5.08.26-7.65a32.94,32.94,0,0,0-1.08-6.84,34.17,34.17,0,0,0-6.71-12.79s0,0,0,0A35.21,35.21,0,0,1,130,21.87a35.75,35.75,0,0,1,.78,7.59c0,2.35-.6,4.81-.18,7.15.63,3.57,3.82,5.07,6.12,7.42a16.6,16.6,0,0,1,4.05,15.15c0,.12.14.17.17,0A16.75,16.75,0,0,0,139.53,47.28Z"/><path class="cls-1" d="M95.72,9.46a29.6,29.6,0,0,0-5.47,12.66c-.42,2.35-.52,4.75-1,7.09A13.62,13.62,0,0,1,85,36.62c-6.89,6.69-8.69,15.85-7.29,25.16,0,.21.4.16.38-.05-.51-5.28-.6-10.59,1.2-15.66A21,21,0,0,1,83.4,39c1.42-1.57,3.21-2.8,4.45-4.54,2.19-3.07,2.21-7,2.68-10.57A37.45,37.45,0,0,1,95.75,9.47S95.74,9.44,95.72,9.46Z"/><path class="cls-2" d="M22.87,26.6l2-.67S34,28,37.05,33.22c0,0,6.73-5.17,22.08-2.69l2,1.7-25,6.71Z"/><path class="cls-3" d="M44.43,67.54,36.58,34.61s16.49-4.17,25-3.15l8,34.68A227.88,227.88,0,0,0,44.43,67.54Z"/><path class="cls-4" d="M44.43,67.54S40.59,63,32.58,60.23l-11-34a95,95,0,0,1,15,8.39Z"/><path class="cls-5" d="M103,77.88c-.45.45-.92,1-1.44,1.5C93.16,88.15,77.11,107.46,69,103.15c-8.57-4.55-23.69-27.38-26-32.06s3.31-9.36,6.8-7.88S69.09,77.76,71.32,78.89c1,.49,5.15-4,11.73-9.89l1.63-1.45C91.87,61.18,100,54.47,105.43,54a6.67,6.67,0,0,1,1.71.09C113.88,55.56,114.61,65.87,103,77.88Z"/><path class="cls-6" d="M103,77.88c-.45.45-.92,1-1.44,1.5a26.9,26.9,0,0,0-4.67-4.92C92.44,70.89,87.1,69.89,83.05,69l1.63-1.45C91.87,61.18,100,54.47,105.43,54a6.67,6.67,0,0,1,1.71.09C113.88,55.56,114.61,65.87,103,77.88Z"/><path class="cls-6" d="M72.62,99.52A1.81,1.81,0,0,0,70,99.25a1.38,1.38,0,0,0,.4,2.27c.73.32,1.64-.48,1.09-1.24-.09-.12-.26,0-.2.17.21.5-.46.72-.77.45a.8.8,0,0,1-.21-.87.93.93,0,0,1,1.13-.48,1.37,1.37,0,0,1,.94.93,1.8,1.8,0,0,1-.36,1.41c0,.09.07.23.16.17A1.82,1.82,0,0,0,72.62,99.52Z"/><path class="cls-5" d="M53.67,66.44l-4.34-5.08s-1.61-5.27-3.67-6.54-4.13-9.47-7.15-8.75-5.14,10.07-4.17,13.27,6.19,7,6.19,7l3.78,7.21S52.47,71.28,53.67,66.44Z"/><path class="cls-2" d="M103,77.88c-.91,0-3.24-9.75-15.65-13.24-1.15-.32,12.83-11.55,18.91-12.36s8.58,4.94,7.29,10.84S104.23,77.92,103,77.88Z"/><path class="cls-3" d="M167.14,152.35H95.77a145.28,145.28,0,0,1,11.94-32.62l34.87-9.3S162.54,123.91,167.14,152.35Z"/><path class="cls-4" d="M125.57,152.35h-1.35c-.37-3.1-.52-6.47-.67-9.87-4.83-.43-9.1-3.43-12.54-6.6-.26-.25.12-.62.38-.4,3.78,3.19,8.1,4.41,12.62,6.05a.55.55,0,0,1,.18.13.25.25,0,0,1,.15.19A65.23,65.23,0,0,1,125.57,152.35Z"/><path class="cls-2" d="M109.63,50.6c-5.23,1.48-8.55,7-11,12.55s-8,16.95-7.39,25.28c.47,6.45,10,12.43,10,12.43s4.38,15.62,6.46,18.87c3.13,4.88,23.75,10.5,35.35-8.1,1.2-1.92-1-38.12-7.71-50.12C130.06,52,122.06,47.07,109.63,50.6Z"/><path class="cls-7" d="M124.89,95.69c-3.52,1.58-6.32,3.8-10.37,4-3.5.14-6.86-1.07-10.07-2.32-.14-.06-.22.16-.1.24a17.78,17.78,0,0,0,10.65,3c3.94-.25,7-2.39,10-4.66A.14.14,0,0,0,124.89,95.69Z"/><path class="cls-7" d="M107.25,99.63a6.34,6.34,0,0,0-5.41-.35c-.13.06-.07.27.06.25a17.18,17.18,0,0,1,2.48-.13,13.75,13.75,0,0,1,2.69.67A.24.24,0,0,0,107.25,99.63Z"/><path class="cls-7" d="M123,55.9a19.3,19.3,0,0,1-8.42,6.29c-4.29,1.53-10,.71-10.1-5,0-.07-.12-.07-.12,0a6.08,6.08,0,0,0,6.78,6.61c4.73-.42,9.47-3.9,12.06-7.74C123.28,55.93,123.1,55.79,123,55.9Z"/><path class="cls-8" d="M94.74,152.36h67.38s-15.66-34-18.75-37.25a4.78,4.78,0,0,1-.59-.87h0a3.23,3.23,0,0,1,3.21-3.81c.77.25-1.71-4.21-2-4.45s-4,.4-4.72-2.16a.08.08,0,0,1,0,0c-2.8-10.25-5.77-24.19-6.82-28.51-2.08-8.57-4.66-17.78-10.78-25.8-2.13-2.81-9.85-5.33-16.27,1.54-3.9,4.17-17.68,29.32-14.58,38.08s9.54,11.59,9.75,12.45,5,15,4.83,19.25S95.6,143.19,94.74,152.36Zm5.41-83.06c-.6-.94,6.44-16.92,9.48-18.71,2.09-1.21,8.71-1.48,9.88-.25s1.06,17.59-.63,18.24S100.76,70.25,100.15,69.3Z"/><path class="cls-9" d="M124.89,95.69c-3.52,1.58-6.32,3.8-10.37,4-3.5.14-6.86-1.07-10.07-2.32-.14-.06-.22.16-.1.24a17.78,17.78,0,0,0,10.65,3c3.94-.25,7-2.39,10-4.66A.14.14,0,0,0,124.89,95.69Z"/><path class="cls-9" d="M107.25,99.63a6.34,6.34,0,0,0-5.41-.35c-.13.06-.07.27.06.25a17.18,17.18,0,0,1,2.48-.13,13.75,13.75,0,0,1,2.69.67A.24.24,0,0,0,107.25,99.63Z"/><path class="cls-5" d="M107.73,56.6s1.14,3.13,4,2.65c5-.84,7.91-6.11,8.12-7.34a69,69,0,0,0-1-9.3c-.08-.42-.15-.85-.23-1.28s-.15-.84-.24-1.25-.22-1.07-.33-1.6c-.84-4-1.59-7.47-1.59-7.47l-1.69,1.14-11.66,8.51,2.91,10.09.17.62.06.2.89,3v0Z"/><path class="cls-6" d="M106.22,51.37a11,11,0,0,0,5.2-.69c3.79-1.44,6-4.56,7.46-8.07-.08-.42-.15-.85-.23-1.28s-.15-.84-.24-1.25-.22-1.07-.33-1.6c-.84-4-1.59-7.47-1.59-7.47l-1.69,1.14-11.66,8.51,2.91,10.09Z"/><path class="cls-5" d="M88.72,26c.4,18.59,10.84,19.39,14,19.85,3.6.53,17.61-.32,19.12-18.86S114.6,2.73,106.26,2.48,88.31,7.37,88.72,26Z"/><path class="cls-1" d="M102.62,26c0-.05.09.07.09.12-.14,1.26-.08,2.72,1,3.23,0,0,0,.08,0,.07C102.34,29.15,102.29,27.2,102.62,26Z"/><path class="cls-1" d="M103.85,24.8c2,0,1.89,4.08,0,4.08S102.14,24.79,103.85,24.8Z"/><path class="cls-1" d="M104.47,25c.35.16.73.48,1.13.46s.74-.47,1-.89c0-.05.06,0,.07,0,.12.71,0,1.48-.78,1.71s-1.28-.35-1.57-1C104.24,25.1,104.32,24.88,104.47,25Z"/><path class="cls-1" d="M94.2,25.55c0-.05-.1.07-.09.12.11,1.26,0,2.73-1.08,3.22,0,0,0,.07,0,.07C94.43,28.67,94.51,26.73,94.2,25.55Z"/><path class="cls-1" d="M93,24.3c-2,0-1.95,4.06-.06,4.09S94.7,24.33,93,24.3Z"/><path class="cls-1" d="M92.33,24.48c-.35.18-.69.54-1.09.55s-.78-.41-1-.81c0,0-.06,0-.07,0-.06.72.17,1.48.93,1.64s1.24-.46,1.47-1.16C92.56,24.6,92.46,24.4,92.33,24.48Z"/><path class="cls-6" d="M103,35.4c-.28.32-.54.76-1,.84a3.15,3.15,0,0,1-1.39-.18,0,0,0,0,0,0,.07,1.72,1.72,0,0,0,1.67.53,1.35,1.35,0,0,0,.88-1.22C103.15,35.37,103.06,35.35,103,35.4Z"/><path class="cls-1" d="M91.76,20.86c.43-.07.82-.2,1.25-.31A2.11,2.11,0,0,0,94.22,20a.65.65,0,0,0,0-.8,1.63,1.63,0,0,0-1.63-.32,2.35,2.35,0,0,0-1.48.91A.71.71,0,0,0,91.76,20.86Z"/><path class="cls-1" d="M105.65,21.45c-.43-.08-.82-.22-1.24-.33a2.09,2.09,0,0,1-1.2-.58.66.66,0,0,1,0-.81,1.67,1.67,0,0,1,1.64-.3,2.42,2.42,0,0,1,1.46.93A.71.71,0,0,1,105.65,21.45Z"/><path class="cls-1" d="M98,33.47a5.24,5.24,0,0,0,2,1.7,2.32,2.32,0,0,0,1.41.14c1-.22,1.1-1.16,1-2a6,6,0,0,0-.41-1.26A6.74,6.74,0,0,1,98,33.47Z"/><path class="cls-10" d="M100,35.17a2.32,2.32,0,0,0,1.41.14c1-.22,1.1-1.16,1-2A2.39,2.39,0,0,0,100,35.17Z"/><path class="cls-6" d="M97.53,31.05s-.18,1.9-.14,2.79c0,.09.22.12.52.12h0a4.24,4.24,0,0,0,4-1.76.09.09,0,0,0-.14-.11A6.4,6.4,0,0,1,98,33.36c-.08-.25.42-3.25.27-3.25a7.88,7.88,0,0,0-2,.54c.26-4,1.16-7.86,1.36-11.82,0-.14-.2-.18-.23,0a63.92,63.92,0,0,0-2,12.67C95.38,32,97.18,31.22,97.53,31.05Z"/><path class="cls-1" d="M121.21,27c-2.07,0-7.79-5.36-8.54-15.33,0,0,1.3,8.9,2,10.18s-3.2-3-3.92-11.06a32.74,32.74,0,0,1-8,4.77c-3.74,1.29-6.07,1.39-6.35,1.13s5.2-2.35,6.6-4.18c0,0-9.83,5.29-14.46,5.92-.54.08-1.84-11,5.09-16.1s18.63-.72,21.88,2.07c0,0,3.63.3,7.86,5.39S123.44,27,121.21,27Z"/><path class="cls-2" d="M103.14,32.36a5.4,5.4,0,0,1-4.45-6.21h0a5.4,5.4,0,1,1,5.79,6.27A5,5,0,0,1,103.14,32.36ZM99.4,26.27a4.68,4.68,0,1,0,5.38-3.85,4.54,4.54,0,0,0-1.16-.05A4.7,4.7,0,0,0,99.4,26.27Z"/><path class="cls-2" d="M91.73,32c-2.21-.07-3.94-2.55-3.84-5.53a6.38,6.38,0,0,1,1.26-3.73,3.35,3.35,0,0,1,5.75.18,6.44,6.44,0,0,1,1,3.81c-.09,2.82-1.78,5.09-3.84,5.26Zm-2-8.82a5.7,5.7,0,0,0-1.11,3.32c-.08,2.58,1.33,4.72,3.15,4.78s3.36-2,3.44-4.57a5.81,5.81,0,0,0-.89-3.39,2.92,2.92,0,0,0-2.26-1.4h-.27A3,3,0,0,0,89.72,23.15Z"/><path class="cls-2" d="M98.85,26.78l.48-.53c-.8-.72-2.66-1.7-4-.33l.51.51C97,25.2,98.78,26.72,98.85,26.78Z"/><path class="cls-2" d="M123.44,27.41,124,27c-.19-.27-2-2.68-3.59-2.71s-11,2.25-11.38,2.34l.17.71c2.71-.66,10-2.35,11.2-2.33S123,26.75,123.44,27.41Z"/><path class="cls-5" d="M118.9,29.22s3.41-6.21,6.18-5.06.65,9.85-2.3,11.33a3.14,3.14,0,0,1-4.37-1.23Z"/><path class="cls-6" d="M124.41,26.64a0,0,0,0,1,0,.08c-2.06,1.11-3,3.23-3.54,5.39a1.74,1.74,0,0,1,2.53-.76.07.07,0,0,1,0,.13,1.92,1.92,0,0,0-2,.9,9.08,9.08,0,0,0-.83,1.82c-.08.2-.44.14-.39-.09v0C119.77,31.31,121.49,27.23,124.41,26.64Z"/><path class="cls-5" d="M172.3,99.84c-2.12,7.47-18.94-1.83-22.74-5.9-4.47-4.79-12.92-12.13-18.23-18a38.68,38.68,0,0,1-3.56-4.41c-3.87-6-6.58-14.73-2-17.67,1.81-1.17,5.95.54,8.35,1.75,5.88,2.93,12.19,7.77,18,13.24C164.09,80.32,173.81,94.51,172.3,99.84Z"/><path class="cls-6" d="M152,68.9A41.14,41.14,0,0,0,131.33,76a38.68,38.68,0,0,1-3.56-4.41c-3.87-6-6.58-14.73-2-17.67,1.81-1.17,5.95.54,8.35,1.75C140,58.59,146.26,63.43,152,68.9Z"/><path class="cls-2" d="M129.41,75.26c.87,0,5.38-8.32,17.21-11.65,1.1-.31-9.51-9.31-18-11.78-6.89-2-6.42,4-5.74,9.67C123.69,68.54,128.2,75.3,129.41,75.26Z"/><path class="cls-5" d="M150.55,105.66c-7.71-2.53-16.17-6.74-23.24-10.21-3.6-1.76-1.31-11.18,4.21-11.09,13.6.23,27-.58,35,6.8,4.72,4.35,6.64,5.68,5.62,9.57C170.38,107.37,162.91,109.71,150.55,105.66Z"/><path class="cls-5" d="M138.59,84.64l-10.89-1a26.09,26.09,0,0,0-9.13-2.69c-4.6-.28-10.94,2.5-11.18,6s1.44,2.35,3.41,2.52,6.26,3.33,9.4,3.27c0,0,1,.41,3.84,1.42s12,4.87,12,4.87S142.81,92.9,138.59,84.64Z"/><path class="cls-6" d="M169.05,99.8a1.8,1.8,0,0,0-2.58-.26,1.37,1.37,0,0,0,.4,2.26c.73.33,1.64-.48,1.08-1.23-.08-.12-.25,0-.19.17.21.5-.46.71-.77.44a.8.8,0,0,1-.21-.87.91.91,0,0,1,1.12-.47,1.35,1.35,0,0,1,.95.93,1.83,1.83,0,0,1-.36,1.4c-.06.1.07.23.16.17A1.82,1.82,0,0,0,169.05,99.8Z"/><path class="cls-6" d="M169,93.57A24,24,0,0,0,157.35,86c-5.41-1.48-11.4-1.55-17-1.57a0,0,0,1,0,0,.08c5.36.46,10.72.65,16,1.93,5,1.23,8.56,4.24,12.5,7.35A.12.12,0,0,0,169,93.57Z"/><path class="cls-11" d="M103.14,87.4a25.43,25.43,0,0,1,4.23-.91c1,0,8.45,5.08,8.73,5.7s-.17,3.48-.17,3.48"/><path class="cls-12" d="M133.32,108.45c-3.26,4.77-17,1-30.74-8.39S80.39,79.19,83.65,74.43s17-1,30.74,8.39S136.58,103.69,133.32,108.45Z"/><path class="cls-13" d="M133.32,108.45c-3.26,4.77-17,1-30.74-8.39S80.39,79.19,83.65,74.43s17-1,30.74,8.39S136.58,103.69,133.32,108.45Z"/><g class="cls-14"><path class="cls-15" d="M67.64,70.15c.48,3.94,3.34,7,6.64,8.95,1.92,1.14,4.38,1.52,6.13,2.93a6.21,6.21,0,0,1,2,5.57c-.52,4.49-4.62,7.74-7.68,10.64-4.72,4.47-10.66,11.43-6.84,18.32,1.79,3.22,5.3,5.35,8.63,6.67a36.38,36.38,0,0,0,11.69,2.27c4.6.22,9.75-.44,12.69,3.93,2.63,3.89,2.38,6.73,1,10.94,0,0,1.18.3,1.27.18a37.67,37.67,0,0,0,3.9-7.37c1.8-4.22,2.27-8.66-1.39-12.33-2.14-2.16-5-3.35-7.46-5.08-3.17-2.25-4.75-5.37-3.54-9.27s4.43-7,6.39-10.63a11.06,11.06,0,0,0,.2-10.56,17.3,17.3,0,0,0-6.89-7.24c-3.35-1.92-7-2.27-10.76-2.37-4.28-.11-9.43-.36-12.07-4.3s-1.59-8.78-.51-13a.13.13,0,0,0-.25-.09C69.06,62,67.13,66,67.64,70.15Z"/></g><path class="cls-1" d="M127.11,128.69s-1.67,24.43-9.46,24.43H76.37c-7.8,0-9.47-24.43-9.47-24.43Z"/><line class="cls-16" x1="73.63" y1="134.41" x2="93.56" y2="134.41"/><rect class="cls-17" x="74.31" y="132.09" width="15.47" height="4.64" rx="2.05"/><polyline class="cls-18" points="65.9 159.88 69.33 153.82 124.68 153.82 128.12 159.88"/><polyline class="cls-18" points="75.75 159.88 78.1 153.82 115.91 153.82 118.26 159.88"/><polyline class="cls-18" points="3.68 159.88 7.12 153.82 62.46 153.82 65.9 159.88"/><polyline class="cls-18" points="13.54 159.88 15.88 153.82 53.7 153.82 56.04 159.88"/><rect class="cls-17" y="158.85" width="199.03" height="6.45"/><polygon class="cls-1" points="52.42 147.12 73.63 148.44 73.63 143.97 52.42 143.92 52.42 147.12"/><path class="cls-3" d="M10.84,143.93s1.62,8.94,4.9,8.93h35c3.28,0,4.9-8.94,4.9-8.94Z"/><path class="cls-19" d="M193.14,136.53v19.75a2.57,2.57,0,0,1-2.56,2.57h-33.4a2.56,2.56,0,0,1-2.55-2.56V136.53a2.55,2.55,0,0,1,2.55-2.56h1.54V132.1H189V134h1.54A2.56,2.56,0,0,1,193.14,136.53Z"/><rect class="cls-3" x="157.64" y="128.69" width="32.45" height="3.33"/><rect class="cls-2" x="154.63" y="140.72" width="38.51" height="12.48"/><path class="cls-20" d="M152.78,141v15.84c0,1.13-.42,2.06-.93,2.06h-12.2c-.52,0-.93-.92-.93-2.05V141c0-1.13.41-2,.93-2h.56v-1.5h11.07v1.5h.57C152.36,138.91,152.78,139.82,152.78,141Z"/><rect class="cls-3" x="139.82" y="134.67" width="11.85" height="2.67"/><rect class="cls-2" x="138.72" y="144.31" width="14.07" height="10.01"/></g></g></svg>