<svg xmlns="http://www.w3.org/2000/svg" xmlns:xlink="http://www.w3.org/1999/xlink" viewBox="0 0 697.45 675.98"><defs><style>.cls-1{mask:url(#mask);filter:url(#luminosity-noclip-2);}.cls-2{mix-blend-mode:multiply;fill:url(#linear-gradient);}.cls-3{mask:url(#mask-2);}.cls-4{fill:url(#Dégradé_sans_nom_2);}.cls-5{fill:#e2a81a;}.cls-6{fill:#fd5e5a;}.cls-7{fill:#52093f;}.cls-8{fill:#55566e;}.cls-9{fill:#fc7575;}.cls-10{fill:#ababdc;}.cls-11{fill:#8080a5;opacity:0.46;}.cls-12{fill:#dd7f0e;}.cls-13{fill:#ffa733;}.cls-14{fill:#f9be78;}.cls-15{fill:#3d0847;}.cls-16{fill:#510b5e;}.cls-17{fill:#fff;}.cls-18{fill:#42004a;}.cls-19{fill:#6f1884;}.cls-20{fill:#c67577;}.cls-21{fill:#c68486;}.cls-22{fill:#fbe3f5;}.cls-23{fill:#b35b5e;}.cls-24{fill:#b37d7f;}.cls-25{fill:#381950;}.cls-26{fill:#604773;}.cls-27{fill:#632d15;}.cls-28{fill:#3d190a;}.cls-29{fill:url(#linear-gradient-2);}.cls-30{fill:url(#linear-gradient-3);}.cls-31{fill:#700d56;}.cls-32{fill:#c72b4b;}.cls-33{fill:#e03055;}.cls-34{fill:#e65a77;}.cls-35{fill:#7a1a2e;}.cls-36{fill:#ff9739;}.cls-37{fill:#f96969;}.cls-38{fill:#f2acbb;}.cls-39{fill:#a984c6;}.cls-40{fill:#c6add9;}.cls-41{fill:#826d3d;}.cls-42{fill:#eba9b7;}.cls-43{fill:#f5ebed;}.cls-44{fill:url(#linear-gradient-4);}.cls-45{fill:#931171;}.cls-46{fill:url(#linear-gradient-5);}.cls-47{fill:#46af46;}.cls-48{fill:#4add4a;}.cls-49{fill:#f43f1c;}.cls-50{fill:#2a420f;}.cls-51{fill:#6e287f;}.cls-52{fill:#4e1a5b;}.cls-53{fill:#7c3b7f;}.cls-54{fill:#375618;}.cls-55{fill:#2c4411;}.cls-56{fill:#42601f;}.cls-57{fill:#f4a800;}.cls-58{fill:#ba630d;}.cls-59{fill:#c47d0c;}.cls-60{fill:#f44a4a;}.cls-61{fill:#0f6041;}.cls-62{fill:#39b54a;}.cls-63{fill:#2b8838;}.cls-64{fill:#070707;}.cls-65{fill:#353535;}.cls-66{fill:#212321;}.cls-67{fill:#232121;}.cls-68{fill:#3c3e69;}.cls-69{opacity:0.22;}.cls-70{fill:#282325;}.cls-71{fill:#b2a4a8;}.cls-72{fill:#211d1e;}.cls-73{fill:#47545c;}.cls-74{fill:#353f45;opacity:0.47;}.cls-75{fill:#262021;}.cls-76{fill:#050505;}.cls-77{fill:#8f8696;}.cls-78{filter:url(#luminosity-noclip);}</style><filter id="luminosity-noclip" x="0" y="-8140.33" width="697.45" height="32766" filterUnits="userSpaceOnUse" color-interpolation-filters="sRGB"><feFlood flood-color="#fff" result="bg"/><feBlend in="SourceGraphic" in2="bg"/></filter><mask id="mask" x="0" y="-8140.33" width="697.45" height="32766" maskUnits="userSpaceOnUse"><g class="cls-78"/></mask><linearGradient id="linear-gradient" x1="147.57" y1="99.76" x2="577.11" y2="600.9" gradientUnits="userSpaceOnUse"><stop offset="0"/><stop offset="1" stop-color="#fff"/></linearGradient><filter id="luminosity-noclip-2" x="0" y="82.69" width="697.45" height="570.99" filterUnits="userSpaceOnUse" color-interpolation-filters="sRGB"><feFlood flood-color="#fff" result="bg"/><feBlend in="SourceGraphic" in2="bg"/></filter><mask id="mask-2" x="0" y="82.69" width="697.45" height="570.99" maskUnits="userSpaceOnUse"><g class="cls-1"><path class="cls-2" d="M697.45,334.45c0-139-156.13-251.76-348.72-251.76S0,195.41,0,334.45C0,467.94,143.92,577.16,325.85,585.67c33.28,40.7,94.67,68,164.88,68,105.67,0,191.33-61.84,191.33-138.12,0-23.88-8.4-46.34-23.17-65.93C683.54,415.11,697.45,376,697.45,334.45Z"/></g></mask><linearGradient id="Dégradé_sans_nom_2" x1="147.57" y1="99.76" x2="577.11" y2="600.9" gradientUnits="userSpaceOnUse"><stop offset="0" stop-color="#f1a926"/><stop offset="1" stop-color="#fac485"/></linearGradient><linearGradient id="linear-gradient-2" x1="52.36" y1="398.82" x2="211.06" y2="398.82" gradientUnits="userSpaceOnUse"><stop offset="0" stop-color="#931171"/><stop offset="0.73" stop-color="#54326b"/><stop offset="1" stop-color="#3c3e69"/></linearGradient><linearGradient id="linear-gradient-3" x1="553.1" y1="353.35" x2="518.74" y2="417.78" gradientUnits="userSpaceOnUse"><stop offset="0" stop-color="#f98084"/><stop offset="1" stop-color="#a9418d"/></linearGradient><linearGradient id="linear-gradient-4" x1="134.92" y1="254.24" x2="248.92" y2="254.24" xlink:href="#linear-gradient-3"/><linearGradient id="linear-gradient-5" x1="135.79" y1="231.4" x2="248.05" y2="231.4" gradientUnits="userSpaceOnUse"><stop offset="0" stop-color="#f59bf3"/><stop offset="1" stop-color="#ffaf90"/></linearGradient></defs><title>Fichier 1</title><g id="Calque_2" data-name="Calque 2"><g id="_Layer_" data-name="&lt;Layer&gt;"><g class="cls-3"><path class="cls-4" d="M697.45,334.45c0-139-156.13-251.76-348.72-251.76S0,195.41,0,334.45C0,467.94,143.92,577.16,325.85,585.67c33.28,40.7,94.67,68,164.88,68,105.67,0,191.33-61.84,191.33-138.12,0-23.88-8.4-46.34-23.17-65.93C683.54,415.11,697.45,376,697.45,334.45Z"/></g><ellipse class="cls-5" cx="348.73" cy="650.33" rx="348.73" ry="25.66"/><path class="cls-6" d="M324.12,624.53a21.5,21.5,0,0,1-15.54-19.24q-.19-2.87-.42-5.89c-.59-7.73-1.69-26.06-2.62-46.81a136.48,136.48,0,0,0-25.32-.46c6.51,24,12.83,47.41,12.22,54.12a73.59,73.59,0,0,1-2.52,12.2l-.4,12.85c5.37,3.22,16.82.6,28.16,3.1s27.2-4,27.2-4S334,627.35,324.12,624.53Z"/><path class="cls-7" d="M317.83,621.55c.17,1.13,1.78,2.72-.15,3.43-3,1.12-20.85-3.85-27.78-5.87l-.38,12.19c5.37,3.22,16.82.6,28.16,3.1s27.2-4,27.2-4-10.92-3-20.76-5.82A21.31,21.31,0,0,1,317.83,621.55Z"/><path class="cls-8" d="M351.24,281.92l-48.3,16.24S310.66,407,291,436.88c-20.81,31.51-29.16,127.22-29.16,127.22l30.69,8.18L318.3,471.67c1.74-6.21,3.92-14,6.64-23.76C352.05,350.76,351.24,281.92,351.24,281.92Z"/><path class="cls-9" d="M308.28,573.55c-6.51-.9-13-1.61-19.61-2.19-.46,36.78.12,41.6-3.2,46,0,0-11,13.29-11,18.69s6.65,19.39,10.1,19.39c3.2,0,14.59-21.66,16.86-30C301.44,625.5,305.45,592.89,308.28,573.55Z"/><path class="cls-6" d="M288.52,583.85a92.73,92.73,0,0,0,18.57-2.08q.59-4.08,1.19-8.22c-6.51-.9-13-1.61-19.61-2.19C288.61,575.73,288.57,579.92,288.52,583.85Z"/><path class="cls-10" d="M275.47,493.58c3-15.35,5.46-17.26,4.73-35.36-.18-4.45-9.9-155.08-5.94-169.94,3.14-18.58,24.24-55.07,24.24-55.07l47.55-.12,5.19,48.83-25.42,21.61c-1,11.12-16,174.15-19.76,184.46-2.13,5.8,6,49.32,9.65,89.75-6.54.65-25.31,3.84-31.83,4.82C276.27,549.19,273.6,503.15,275.47,493.58Z"/><path class="cls-11" d="M346.05,233.09l-47.55.12s-2,3.52-4.94,8.93c4.66,3,25.36,14.47,53.53.75Z"/><path class="cls-12" d="M375.82,164.92c-8.71-17-27-77.76-34.47-78.21-6.83-.4-10.85,2-10.85,2s-5.15,42.93,6.39,47c7.62,2.7,17.51,27.51,27,43.57A52.72,52.72,0,0,1,375.82,164.92Z"/><path class="cls-13" d="M330.5,88.7s-9.19-4.53-47.07.1c-1.92.24-5.5,44.08-5.5,44.08s18.7,81.85,14.79,100.21c0,0,22.71,16.39,55.15,1.12,0,0-5.66-62.82-2.51-75.68s9.19-24.47,1.14-38S330.5,88.7,330.5,88.7Z"/><path class="cls-14" d="M283.43,88.8a15.28,15.28,0,0,0-13.08-1.71c-6.76,2.26-23,63.84-33,76.37a124.75,124.75,0,0,1,14.88,15.68,160.22,160.22,0,0,0,13.42-25.8c7.17-18.44,9.73-18.69,14.84-22.11C289.29,125.3,283.43,88.8,283.43,88.8Z"/><path class="cls-13" d="M252.19,179.14c3.45-7.51,8.36-16.93,11.72-25.48,6.76-16.77,9.54-19,16.54-22.43-3.74,3.3-5.05,3.39-8.53,10.59C267.57,151.19,264.33,164.35,252.19,179.14Z"/><path class="cls-15" d="M292.56,33.66s-15.21,2.77-15.21,13.56,2.33,5.91,4.78,13.62.17,14.29,10.43,14.29,8.48.67,13.59,3.78,15.21-2.11,16.3-13.23-17.66-10.35-17.66-18.46S292.56,33.66,292.56,33.66Z"/><path class="cls-9" d="M322.45,59.33s-5.19,7.61-4.55,16.33c.35,4.72,1.24,10.65,2.66,14.1,1.48,3.62.46,6.66-3.13,8.12a10.1,10.1,0,0,1-7.58.21c-4.4-1.69-11.09-4.83-13.12-9.74-1.36-3.29,10.94-40.48,10.94-40.48Z"/><path class="cls-6" d="M322.45,59.33,307.67,47.87s-1.44,4.37-3.29,10.25c3.47,5.25,8.08,10.32,13.79,12.29A30.77,30.77,0,0,1,322.45,59.33Z"/><path class="cls-9" d="M332.86,9.33A17,17,0,0,1,339.12,19c1.48,6.41-2.28,14-1.88,19.45s-7.77,32.23-20.7,27.05-16-25.45-16.27-29.88,7.25-19.84,14.42-24S332.86,9.33,332.86,9.33Z"/><path class="cls-16" d="M328.07,36.41a90.51,90.51,0,0,0,1.25,11,6.45,6.45,0,0,1-3.85.64,6,6,0,0,0,4.47-.3A91.49,91.49,0,0,0,328.07,36.41Z"/><path class="cls-16" d="M322.11,30.89a12.78,12.78,0,0,0-5.53-2.33c-3-.35-7.11,3.13-7.11,3.13s4.52-2.61,6.51-2.3A11.42,11.42,0,0,1,319.91,31Z"/><path class="cls-16" d="M329.29,31A10.65,10.65,0,0,1,334,28.64c2.53-.36,5.81,3.09,5.81,3.09s-3.66-2.59-5.34-2.27a9.5,9.5,0,0,0-3.39,1.64Z"/><path class="cls-17" d="M319.15,53.11c6.43,2.41,8.82,2.24,11,1.75C327,57.43,321.54,55.94,319.15,53.11Z"/><path class="cls-16" d="M320.18,35.33A1.71,1.71,0,1,1,319,33,1.84,1.84,0,0,1,320.18,35.33Z"/><path class="cls-18" d="M312.47,35.65c6.8-6,8.88-1,10.93-.54-1.7,0-3.48-2-5.38-1.69A27.41,27.41,0,0,0,312.47,35.65Z"/><path class="cls-16" d="M334.45,36.08c-.25,1.05-1,1.74-1.73,1.55s-1.09-1.19-.85-2.24,1-1.74,1.73-1.55S334.69,35,334.45,36.08Z"/><path class="cls-18" d="M329.07,36.39c5.48-5.74,7.38-.74,9.11-.18-1.42-.08-3-2.13-4.55-1.86A19.41,19.41,0,0,0,329.07,36.39Z"/><path class="cls-6" d="M319.75,45.54c-.45,1.8-2.71,2.78-5.05,2.2s-3.9-2.51-3.45-4.3,2.7-2.78,5-2.2S320.19,43.75,319.75,45.54Z"/><path class="cls-16" d="M333.53,9.19C331.8,4.34,327.32.66,319.76.34,311.63,0,301.4-1.33,293.84,5.11c-3.14,2.68-6.14,5.76-6.56,9.73-.77,7.41,2.64,15.16.12,22.36a15.24,15.24,0,0,0,8.33,19.17c4.27,1.81,7.49,1.91,9.81-1.93-.33-3.95-9.87-16.24-.06-25.23.63.45-.54,3.47.93,3.52,3.54.1,5.85-7.6,6.25-10.81,1.79-7.86,11.75-13.47,19.47-12.37.89.17,1.42.38,1.62.36A2.59,2.59,0,0,0,333.53,9.19Z"/><path class="cls-16" d="M329.74,4.67A18.83,18.83,0,0,1,342.32,9c5.56,4.84,4.75,22.22,1.34,25.56s10.43,9.2,2.71,9.22C335.43,43.79,322.9,5.92,329.74,4.67Z"/><path class="cls-19" d="M331.67,7.26c10.33.49,16.12,9.41,12.67,17.9-.58,1.43-1.48,2.86-2.95,3.28L341,26.29c.57,0,1.39-1.4,1.65-1.91C346.28,17.05,341.44,8.48,331.67,7.26Z"/><path class="cls-9" d="M306.45,31.21s-.61-5.5-5-4-2.55,14.91,1.31,13.6S306.45,31.21,306.45,31.21Z"/><path class="cls-6" d="M305.48,33.87s-.54-6-2.72-4.39-2.4,7.43-.12,7.79S305.48,33.87,305.48,33.87Z"/><path class="cls-8" d="M296.38,261a1.11,1.11,0,0,1-.52-.13,1.07,1.07,0,0,1-.42-1.46c1.28-2.34,2.1-3.77,2.1-3.77a1.08,1.08,0,1,1,1.87,1.07s-.82,1.42-2.09,3.73A1.06,1.06,0,0,1,296.38,261Z"/><path class="cls-8" d="M284.86,563.62a1.06,1.06,0,0,1-1.06-1c-.26-2.56-.53-5.43-.82-8.49a1.07,1.07,0,0,1,1-1.17,1.08,1.08,0,0,1,1.17,1c.29,3.06.56,5.92.81,8.48a1.08,1.08,0,0,1-1,1.18Zm-1.61-17a1.07,1.07,0,0,1-1.06-1c-.26-2.79-.51-5.64-.76-8.5a1.07,1.07,0,0,1,1-1.16,1.08,1.08,0,0,1,1.17,1c.25,2.86.5,5.71.76,8.49a1.08,1.08,0,0,1-1,1.17Zm-1.47-17a1.07,1.07,0,0,1-1.07-1c-.24-2.93-.46-5.79-.66-8.51a1.07,1.07,0,1,1,2.14-.16c.2,2.71.42,5.57.66,8.49a1.07,1.07,0,0,1-1,1.16Zm-1.22-17a1.07,1.07,0,0,1-1.07-1c-.2-3.63-.31-6.52-.32-8.58a1.09,1.09,0,0,1,1.07-1.08h0a1.07,1.07,0,0,1,1.07,1.08c0,2,.11,4.86.31,8.46a1.07,1.07,0,0,1-1,1.14Zm.3-17h-.14a1.07,1.07,0,0,1-.92-1.21c.36-2.67.89-5.52,1.57-8.47a1.06,1.06,0,0,1,1.28-.81,1.08,1.08,0,0,1,.81,1.29c-.66,2.89-1.18,5.68-1.53,8.28A1.09,1.09,0,0,1,280.86,495.63ZM284.61,479a1.12,1.12,0,0,1-.31,0,1.07,1.07,0,0,1-.72-1.34c1.24-4.08,2.35-7.06,2.77-8.15a1.07,1.07,0,0,1,1.39-.62,1.08,1.08,0,0,1,.62,1.39c-.42,1.07-1.5,4-2.72,8A1.08,1.08,0,0,1,284.61,479Zm2.53-16.65a1.08,1.08,0,0,1-1.08-1l-.36-8.55a1.07,1.07,0,1,1,2.14-.09l.37,8.54a1.07,1.07,0,0,1-1,1.12Zm-.74-17.09a1.07,1.07,0,0,1-1.07-1l-.37-8.54a1.08,1.08,0,0,1,2.15-.09l.37,8.53a1.07,1.07,0,0,1-1,1.12Zm-.73-17.07a1.08,1.08,0,0,1-1.07-1l-.36-8.53a1.07,1.07,0,1,1,2.14-.09l.37,8.53a1.09,1.09,0,0,1-1,1.12ZM285,411.14a1.06,1.06,0,0,1-1.07-1l-.37-8.54a1.08,1.08,0,1,1,2.15-.09L286,410a1.06,1.06,0,0,1-1,1.12Zm-.73-17.06a1.08,1.08,0,0,1-1.07-1l-.36-8.53a1.08,1.08,0,1,1,2.15-.09l.36,8.53a1.07,1.07,0,0,1-1,1.12ZM283.51,377a1.07,1.07,0,0,1-1.07-1l-.36-8.53a1.09,1.09,0,0,1,1-1.12,1.07,1.07,0,0,1,1.12,1l.35,8.53a1.07,1.07,0,0,1-1,1.12ZM282.8,360a1.07,1.07,0,0,1-1.07-1l-.35-8.54a1.07,1.07,0,1,1,2.14-.08l.35,8.53a1.07,1.07,0,0,1-1,1.12Zm-.7-17.07a1.07,1.07,0,0,1-1.07-1l-.35-8.53a1.07,1.07,0,0,1,1-1.12,1.09,1.09,0,0,1,1.12,1l.34,8.53a1.06,1.06,0,0,1-1,1.12Zm-.69-17.07a1.08,1.08,0,0,1-1.07-1c-.12-3-.23-5.9-.33-8.54a1.08,1.08,0,0,1,2.15-.08c.1,2.64.21,5.5.33,8.54a1.09,1.09,0,0,1-1,1.12Zm-.65-17.09a1.08,1.08,0,0,1-1.07-1c-.14-3.78-.23-6.71-.28-8.57a1.06,1.06,0,0,1,1-1.1h0a1.09,1.09,0,0,1,1.08,1.05c0,1.86.14,4.78.28,8.55a1.07,1.07,0,0,1-1,1.11Zm1.07-17a1,1,0,0,1-.33,0,1.08,1.08,0,0,1-.69-1.36c.75-2.27,1.8-5,3.13-8a1.07,1.07,0,0,1,2,.86c-1.3,3-2.33,5.63-3.06,7.85A1.07,1.07,0,0,1,281.83,291.78Zm6.68-15.66A1.12,1.12,0,0,1,288,276a1.09,1.09,0,0,1-.5-1.44c1.18-2.41,2.48-5,3.86-7.63a1.07,1.07,0,1,1,1.9,1c-1.37,2.64-2.66,5.19-3.82,7.58A1.09,1.09,0,0,1,288.51,276.12Z"/><path class="cls-8" d="M286.06,575.58a1.07,1.07,0,0,1-1.07-1s-.16-1.58-.43-4.28a1.07,1.07,0,1,1,2.13-.21c.27,2.69.44,4.27.44,4.27a1.08,1.08,0,0,1-1,1.18Z"/><rect class="cls-20" x="32.9" y="277.09" width="613.15" height="12.34"/><path class="cls-21" d="M202.15,277.09l-1.28.41.51-.41Z"/><path class="cls-21" d="M210.55,277.09l-1.06.4c.08-.05.37-.18.84-.4Z"/><rect class="cls-22" x="387.24" y="277.09" width="258.81" height="12.34"/><rect class="cls-23" x="51.48" y="289.44" width="575.99" height="8.96"/><rect class="cls-24" x="396.19" y="289.44" width="231.28" height="8.96"/><rect class="cls-25" x="51.48" y="298.4" width="575.99" height="7.88"/><rect class="cls-26" x="394.04" y="298.4" width="233.43" height="7.88"/><polygon class="cls-27" points="104.58 655.32 127.65 397.8 111.94 397.02 94.64 655.32 104.58 655.32"/><polygon class="cls-28" points="62.39 655.32 97.23 394.19 82.04 394.03 52.36 655.32 62.39 655.32"/><polygon class="cls-28" points="164.4 655.32 163.52 401.41 147.81 400.55 154.5 655.32 164.4 655.32"/><polygon class="cls-27" points="217.48 655.32 198.18 397.41 183 396.58 207.51 655.32 217.48 655.32"/><path class="cls-27" d="M111,511.4l85.62-2.9v22.42L172,523.48a55.74,55.74,0,0,0-36.17,1.29L111,534.18Z"/><rect x="66.87" y="400.55" width="50.42" height="23.33"/><rect class="cls-27" x="117.29" y="400.55" width="83.12" height="23.33" transform="translate(317.7 824.43) rotate(180)"/><path class="cls-29" d="M76.92,385.41H186.5A24.56,24.56,0,0,1,211.06,410v2.24a0,0,0,0,1,0,0H52.36a0,0,0,0,1,0,0V410A24.56,24.56,0,0,1,76.92,385.41Z"/><polygon class="cls-27" points="496.81 655.32 519.88 397.8 504.17 397.02 486.87 655.32 496.81 655.32"/><polygon class="cls-28" points="454.62 655.32 489.47 394.19 474.27 394.03 444.59 655.32 454.62 655.32"/><polygon class="cls-28" points="556.63 655.32 555.75 401.41 540.04 400.55 546.73 655.32 556.63 655.32"/><polygon class="cls-27" points="609.71 655.32 590.41 397.41 575.23 396.58 599.75 655.32 609.71 655.32"/><path class="cls-27" d="M503.18,511.4l85.63-2.9v22.42l-24.59-7.44a55.74,55.74,0,0,0-36.17,1.29l-24.87,9.41Z"/><rect x="459.1" y="400.55" width="50.42" height="23.33"/><rect class="cls-27" x="509.52" y="400.55" width="83.12" height="23.33" transform="translate(1102.16 824.43) rotate(180)"/><path class="cls-30" d="M469.15,385.41H578.73A24.56,24.56,0,0,1,603.29,410v2.24a0,0,0,0,1,0,0H444.59a0,0,0,0,1,0,0V410A24.56,24.56,0,0,1,469.15,385.41Z"/><rect class="cls-25" x="69.38" y="306.28" width="15.75" height="353.66"/><rect class="cls-25" x="143.83" y="304.13" width="15.75" height="353.66"/><rect class="cls-25" x="380.44" y="306.28" width="15.75" height="353.66"/><rect class="cls-26" x="394.04" y="306.28" width="5.49" height="353.66" transform="translate(793.57 966.22) rotate(180)"/><rect class="cls-26" x="621.36" y="306.28" width="5.98" height="353.66" transform="translate(1248.7 966.22) rotate(180)"/><rect class="cls-25" x="605.59" y="306.28" width="15.75" height="353.66"/><path class="cls-31" d="M281.23,622.91c-3.09,4.31-6.75,10.05-6.75,13.16,0,5.41,6.65,19.39,10.1,19.39,2.11,0,7.77-9.39,12-18.18C287.4,636.89,283,628,281.23,622.91Z"/><path class="cls-32" d="M400.29,269.85a14.76,14.76,0,0,0-29.52,0c0,.16,0,.31,0,.47l29.48.16C400.27,270.33,400.29,270,400.29,269.85Z"/><path class="cls-33" d="M400.07,270.05a14.76,14.76,0,1,0-29.52,0c0,.16,0,.31,0,.47H400C400.05,270.36,400.07,270.21,400.07,270.05Z"/><path class="cls-34" d="M371.26,269.8a13.88,13.88,0,0,1,3.92-9.46l7.7,9.46Z"/><polygon class="cls-33" points="384.34 270.46 384.29 270.52 384.39 270.52 384.34 270.46"/><path class="cls-34" d="M376.23,259.35a14,14,0,0,1,17.1-.82l-9,10.81Z"/><path class="cls-34" d="M385.82,269.8l8.64-10.39a14,14,0,0,1,4.89,10.39Z"/><path class="cls-33" d="M442.83,258.76a12.88,12.88,0,0,0,25.74,0Z"/><path class="cls-35" d="M455.7,269.39a13.07,13.07,0,0,1-12.83-10.16,12.86,12.86,0,0,0,25.66,0A13.07,13.07,0,0,1,455.7,269.39Z"/><path class="cls-36" d="M463.19,262.51c.23.36.22.78,0,.94s-.64,0-.87-.36a1.2,1.2,0,0,1,0-.95S463,262.15,463.19,262.51Z"/><path class="cls-36" d="M459.75,266.13c0,.42-.3.75-.6.72s-.5-.39-.47-.82.61-.72.61-.72S459.79,265.7,459.75,266.13Z"/><path class="cls-36" d="M453.5,265.88c-.13.42-.46.68-.74.59s-.41-.49-.29-.9.74-.58.74-.58S453.62,265.48,453.5,265.88Z"/><path class="cls-36" d="M449.71,263c-.12.4-.46.67-.74.58s-.41-.49-.29-.9.74-.58.74-.58S449.84,262.54,449.71,263Z"/><path class="cls-33" d="M410.8,258.76a12.87,12.87,0,0,0,25.73,0Z"/><path class="cls-35" d="M423.66,269.39a13.07,13.07,0,0,1-12.83-10.16,12.86,12.86,0,0,0,25.66,0A13.06,13.06,0,0,1,423.66,269.39Z"/><path class="cls-36" d="M431.15,262.51c.24.36.22.78,0,.94s-.64,0-.87-.36a1.2,1.2,0,0,1,0-.95S430.92,262.15,431.15,262.51Z"/><path class="cls-36" d="M427.72,266.13c0,.42-.31.75-.61.72s-.5-.39-.46-.82.6-.72.6-.72S427.76,265.7,427.72,266.13Z"/><path class="cls-36" d="M421.46,265.88c-.12.42-.45.68-.74.59s-.41-.49-.29-.9.74-.58.74-.58S421.59,265.48,421.46,265.88Z"/><path class="cls-36" d="M417.67,263c-.12.4-.45.67-.74.58s-.41-.49-.28-.9.74-.58.74-.58S417.8,262.54,417.67,263Z"/><path class="cls-36" d="M393,263.27c.3-.31.72-.38.92-.17s.14.62-.16.93a1.18,1.18,0,0,1-.93.16S392.65,263.57,393,263.27Z"/><path class="cls-36" d="M375.39,266.19c-.36-.23-.53-.62-.37-.87a.69.69,0,0,1,.94,0c.37.23.37.87.37.87S375.75,266.42,375.39,266.19Z"/><path class="cls-36" d="M381.29,259.73c-.22-.38-.18-.8.07-.94s.64,0,.86.4a1.19,1.19,0,0,1-.08.94S381.5,260.1,381.29,259.73Z"/><path class="cls-36" d="M383.64,264.88c-.21-.38-.18-.8.08-.94s.64,0,.85.4-.08.94-.08.94S383.86,265.25,383.64,264.88Z"/><path class="cls-36" d="M388.13,259c.19-.38.57-.58.83-.45s.32.55.13.94-.83.45-.83.45S387.94,259.41,388.13,259Z"/><path class="cls-36" d="M396,266.55a.69.69,0,0,1,.93-.17c.21.21.13.62-.17.93s-.93.17-.93.17S395.67,266.85,396,266.55Z"/><path class="cls-36" d="M391.54,267.21c.3-.3.72-.37.92-.16s.14.62-.16.92a.57.57,0,1,1-.76-.76Z"/><path class="cls-37" d="M363.9,179.29l17.25,65.42s-6.62,11.18-6.62,14.32,6.27-6.44,8.06-6.44,12.26,3.75,13.6,8.4c1.55,5.37,5.25,10.54,5.73,9.49,1.19-2.6-.36-10.62-5.13-15.39,0,0,6.54,3.22,8.16,9.31s3.05.16,1.62-3.41-7.87-10.73-7.87-10.73-8.06-10.89-10.39-29.34-8.94-53.71-9.84-53.71S363.9,179.29,363.9,179.29Z"/><path class="cls-34" d="M381.13,169.13s-.49-4.77-2.36-5.62-1.62-4.67-3.22-6.08-13.69,9.08-19.51,13.8-.71,5.35,1.14,7.55,1.5,3.88,3.71,4.88S381.9,174.26,381.13,169.13Z"/><path class="cls-38" d="M376.84,163.72c-4.18,4.2-12.28,11.58-18,13-.89.23-1.26-1.24-.34-1.41.13-.06,3.15-.29,9.63-4.77A91.51,91.51,0,0,0,376.84,163.72Z"/><path class="cls-39" d="M360.84,166.36l-42.31,46.16,7.39,6.78,35.53-45.6a5.44,5.44,0,0,0-.61-7.34Z"/><path class="cls-40" d="M360.84,166.36c2.08,1.92,1.32,4.82-.42,7l-35.23,45.21.73.68,35.53-45.6A5.44,5.44,0,0,0,360.84,166.36Z"/><path class="cls-41" d="M306.32,225.21l12.52-13.32a2.2,2.2,0,0,1,3.37,2.83l-11,14.64a3.23,3.23,0,0,1-5.17-3.87Z"/><path class="cls-9" d="M324.51,207.54c-4.47-1.55-14.61,0-14.61,0-8.54-3.69-54.1-26.41-56.12-31.5-.29-.73.8-2.44,2.86-4.86a52.6,52.6,0,0,0-17.82-5.54c-5.78,7.68-9.47,14.39-7.26,18.15,6.48,11.06,56.06,27.07,68.36,30.33a15.9,15.9,0,0,1,6.14,2.86c1.06,3.32,19.88,9.57,19.88,7.69s1.88-2.51,2.51-5,.62-3.66,1.7-6S329,209.09,324.51,207.54Z"/><path class="cls-42" d="M257.36,177.44s4-2.76,3.67-4.87,3.23-3.74,3.58-5.88-15.77-8-23.24-11-5.16,1.95-6.07,4.7-2.6,3.25-2.25,5.74S253.24,180.63,257.36,177.44Z"/><path class="cls-43" d="M259.75,170.92c-6.09-1.75-17.2-5.53-21.68-10a.73.73,0,1,1,1.06-1c.13.1,2,2.72,9.66,6.44A106.35,106.35,0,0,0,259.75,170.92Z"/><path class="cls-44" d="M135.07,231.4q-.15,1.53-.15,3.09c0,23.51,25.52,42.58,57,42.58s57-19.07,57-42.58q0-1.56-.15-3.09Z"/><path class="cls-45" d="M248.77,231.4H232c-8.53,25.6-27.37,43.74-49.49,45.08C220.57,281.23,251.29,257.74,248.77,231.4Z"/><path class="cls-46" d="M232.06,236.44c-48.56,7-131.17-2.69-80.28-10.07C200.33,219.35,283,229.06,232.06,236.44Z"/><path class="cls-45" d="M188.22,238.82a286.38,286.38,0,0,1-36.44-2.38c-12.62-1.83-16-4-16-5s3.37-3.2,16-5a269.91,269.91,0,0,1,31.73-2.31A87.43,87.43,0,0,0,188.22,238.82Z"/><path class="cls-47" d="M144.37,235.93l-3.47-5.33,3.47-1.78,5.36.52,3.13-.74s.75-2,2.15-1.27,3.77.52,4,.87a14.16,14.16,0,0,0,3,1.16l1.32,3.11L162,237.61l-.85.72Z"/><path class="cls-48" d="M152.86,236.59s1-4.38,3-4.38a47.52,47.52,0,0,0,6.61-1s3,.16,3.26.21a22.9,22.9,0,0,1,4.22,2.47,21.65,21.65,0,0,0,1.67,1.59l1.85.71,2.91-.8H180l1.94,1.18,5.46-1.36,6.46,3.59-12.63.67-28.37-2.09Z"/><path class="cls-49" d="M192.43,236.45c-2.14,0-3.67,1.36-2.38,2.47l4.8,0C196.1,237.74,194.5,236.45,192.43,236.45Z"/><path class="cls-17" d="M191.92,223.17c-31.44,0-56.93,3.69-56.93,8.23s25.49,8.24,56.93,8.24,56.92-3.69,56.92-8.24S223.36,223.17,191.92,223.17Zm38.73,12.65c-33.94,4.61-88.59,1.46-94-4.42.48-.51,3.17-2.6,16.54-4.42a304.09,304.09,0,0,1,38.73-2.21A304.2,304.2,0,0,1,230.65,227c13.37,1.82,16.06,3.91,16.54,4.42C246.71,231.92,244,234,230.65,235.82Z"/><path class="cls-50" d="M521,248.28c3.3-1.51,4.75-4.16,2.16-6.88-3.28-3.63-10.25-2.87-13.18,1.59-2.24,3.32-1.7,8.19.22,11.47a11.76,11.76,0,0,0,4.08,4.18,11.55,11.55,0,0,0,5.32,1.76l-.42,2A15.78,15.78,0,0,1,509,255.07c0-.06-4.18-7.11-.45-13.06,3.91-6.37,14-6.8,17.71-.63,2.27,3.77-.12,7.76-4,9.66Z"/><path class="cls-51" d="M589.67,260.18c0-9-9.45-16.33-21.12-16.33-8.48,0-15.79,3.87-19.15,9.45-17.42.76-30.87,5.64-30.87,11.56,0,2.76,2.74,4.7,4.89,5.9a43.05,43.05,0,0,0,13,4.22,142.55,142.55,0,0,0,16.74,2.09,108,108,0,0,0,16.29.19,29.87,29.87,0,0,0,12.35-3.54,15,15,0,0,0,6.93-7.89A16.66,16.66,0,0,0,589.67,260.18Z"/><path class="cls-52" d="M588.74,261.74a15,15,0,0,1-6.93,7.88,29.88,29.88,0,0,1-12.35,3.55,108,108,0,0,1-16.29-.2,140.46,140.46,0,0,1-16.74-2.09,42.76,42.76,0,0,1-13-4.21,10.94,10.94,0,0,1-4.35-3.84,4.31,4.31,0,0,0-.54,2c0,2.76,2.74,4.7,4.89,5.9a43.05,43.05,0,0,0,13,4.22,142.55,142.55,0,0,0,16.74,2.09,108,108,0,0,0,16.29.19,29.87,29.87,0,0,0,12.35-3.54,15,15,0,0,0,6.93-7.89,16.66,16.66,0,0,0,.93-5.65,13.83,13.83,0,0,0-.13-1.83A15.92,15.92,0,0,1,588.74,261.74Z"/><path class="cls-53" d="M527.8,261.14s24-2,26.3-2.79,1.72-6.12,10.68-8,14.41,1.16,15.49,5.88-5.27,8.58-7.59,5.4-3-6.82-8.19-6.16-9.15,5.15-9.15,5.15Z"/><path class="cls-54" d="M529.8,260.11l-2.53,1.31,2,1.8-2.78.9,2.7,1.86.08.06-3,1.71,2.44,2.05-3,1.36.4,2c-8.24-1.08-9.83-7.52-9.83-7.52a8.65,8.65,0,0,1-.09-2.3c.79-8.05,13.78-7.78,13.78-7.78l-2,1.29,1.3.41-1.58,1.31Z"/><path class="cls-55" d="M528.72,269.8l-3,1.36.4,2c-8.24-1.08-9.83-7.52-9.83-7.52a8.65,8.65,0,0,1-.09-2.3,15.17,15.17,0,0,0,3,4.62c3,3,4.77,3,4.77,3v-1.45l2.46.08-2.1-2.24,4.83-1.29.08.06-3,1.71Z"/><path class="cls-56" d="M518.05,261.29a7.89,7.89,0,0,1,5-3.32c3.55-.77,4.08-.24,4.08-.24l-1.83,1.2,1.11,1-1.4,1,1.59,1.11S520.65,260.23,518.05,261.29Z"/><path class="cls-57" d="M511.07,261c-.48,8.31-11.43,16.15-22.46,16.15s-21.54-8.25-21.54-16.57c0-11.95,6.19-11.93,14.06-11.28,1.5.13,3.06.27,4.65.36.93.06,1.88.09,2.83.09s2,0,3-.12c1.2-.08,2.4-.21,3.58-.33C504,248.34,511.87,247.27,511.07,261Z"/><path class="cls-58" d="M489,272.49c-11,0-21.5-8.22-21.54-16.53a22.82,22.82,0,0,0-.41,4.62c0,8.32,10.5,16.57,21.54,16.57s22-7.84,22.46-16.15c.05-.9.06-1.73,0-2.51C509.09,266,499.09,272.49,489,272.49Z"/><path class="cls-59" d="M478.69,267.32s-5.19-4.68-3.39-10.92c.95-3.31,3.58-5.64,5.83-7.1,1.5.13,3.06.27,4.65.36A45.64,45.64,0,0,0,479.5,253C472.78,257.27,478.69,267.32,478.69,267.32Z"/><path class="cls-59" d="M497.26,263.48s5.09-6.79,2.28-9.6c-1.78-1.78-5.48-3.34-8-4.25,1.2-.08,2.4-.21,3.58-.33,2.67.65,5.77,2,6.51,4.82C503,259.28,497.26,263.48,497.26,263.48Z"/><path class="cls-60" d="M498,257.24c0,2.85-3.8,5.16-8.49,5.16s-8.48-2.31-8.48-5.16,3.8-5.16,8.48-5.16S498,254.39,498,257.24Z"/><path class="cls-61" d="M482.94,237.76s0,0,.08,0l0-.05S482.94,237.75,482.94,237.76Z"/><path class="cls-61" d="M499.42,244.16a1.5,1.5,0,0,0-2.16,0c1.52,0,.83,1.79-.44,3.06-.77.77-6.42.52-8.4.1a2.32,2.32,0,0,0-.38-.06c1.43-4.26-.36-13.89-6-12.21l.94,2.65a1.51,1.51,0,0,1,.61-.2c2.36-.25,4.4,6.42,3.76,9.71-3.41-.08-9.38,1.77-10,.71-.83-1.37,1.21-1.68,1.21-1.68l1.8.48s-1.73-2.55-3.49-1.93a2.73,2.73,0,0,0-1.53,4.34c.54.53,5.85.56,8.45.55a11.78,11.78,0,0,0-5.23,4.07c-1.67,2.63,1.8,6.33,1.8,6.33s-1.88-3.67.14-5.68a38.17,38.17,0,0,1,6.16-4.37l.2,9.17a7.22,7.22,0,0,0,2-5.28,11.76,11.76,0,0,0-.58-4.18l1.85.16a19.83,19.83,0,0,1,4.19,1.78c2.1,1.28-1.06,4.71-1.06,4.71a4.88,4.88,0,0,0,2.48-2.14c1.68-3.09-.2-3.9-1.72-4.57,1.19-.14,2.31-.08,4-.38C500.82,248.8,500.5,245.24,499.42,244.16Z"/><path class="cls-62" d="M279.74,271.68s-65.8,1.67-97.28,26.72c0,0,56.76-21,66.46-22.67,0,0-37.31,13.71-39.7,18.19,0,0,44.5-17.95,50.53-18.9s30.61,2.13,30.61,2.13l12.22-.06Z"/><path class="cls-62" d="M308.49,275.73l.66,1.36h-14c-16.06-4-41.88-10.16-49.9-10.16-10.51,0-37,8.21-43.1,10.16l-1.28.41.51-.41c2.54-2,14.77-10.38,38.15-11.85C266,263.57,308.49,275.73,308.49,275.73Z"/><path class="cls-63" d="M314.38,277.09h-5.56c-10.64-4-34.49-12.89-42.5-14.75-9.48-2.18-48.7,12.12-55.77,14.75l-1.06.4c.08-.05.37-.18.84-.4,5.72-2.68,38.33-17.63,56-17.63C280.76,259.46,303.64,271.13,314.38,277.09Z"/><rect class="cls-41" x="338.18" y="270.48" width="133.54" height="6.61"/><rect class="cls-64" x="371.08" y="40.19" width="240.45" height="5.95"/><path class="cls-65" d="M391.44,48.55h0a2.81,2.81,0,0,1-2.8-2.8V24.69a2,2,0,0,1,2-2h1.55a2,2,0,0,1,2,2V45.75A2.81,2.81,0,0,1,391.44,48.55Z"/><path class="cls-65" d="M597.9,50.23h0c-.91,0-1.66-1.25-1.66-2.8V24.69c0-1.12.54-2,1.21-2h.91c.66,0,1.2.9,1.2,2V47.43C599.56,49,598.82,50.23,597.9,50.23Z"/><polygon class="cls-66" points="379.88 47.99 373.42 47.99 373.42 40.78 373.42 38.21 379.88 38.21 379.88 47.99"/><polygon class="cls-66" points="607.29 38.27 611.12 38.27 611.12 45.48 611.12 48.05 607.29 48.05 607.29 38.27"/><path class="cls-65" d="M413.81,58.09a2.75,2.75,0,0,1-2.25-1.2c-1.83-2.46.58-8,2.91-13.37,1.27-2.9,2.84-6.52,2.4-7.29,0,0,0,0-.11,0-3-.35-4.12,4-4.12,4h-1.23s1.51-5.62,5.49-5.17a1.26,1.26,0,0,1,1,.63c.71,1.22-.37,3.83-2.33,8.34s-4.47,10.28-3.05,12.2a1.55,1.55,0,0,0,1.35.72c2.53,0,6.47-5.07,7.78-7a.58.58,0,1,1,1,.65c-.52.77-5.14,7.45-8.73,7.53Z"/><path class="cls-65" d="M473.21,56.89c-1.82-2.46.58-8,2.92-13.37.39-.89,3.25-7.22,2.29-7.33-3-.35-4.13,4-4.13,4H473s1.55-5.62,5.53-5.17c4.81.55-7.28,17.28-4.4,21.17,2.06,2.78,7.19-3.43,9.13-6.28a.58.58,0,0,1,1,.65c-.52.77-5.14,7.45-8.73,7.53A2.73,2.73,0,0,1,473.21,56.89Z"/><path class="cls-67" d="M477.39,54.14s-2.75-3.8-6.66,0c-4.6,4.44-.71,63.19-.71,63.19l7,.31s1.43-58.81,1.39-60.42A9.81,9.81,0,0,0,477.39,54.14Z"/><path class="cls-68" d="M508.07,147.8a35.22,35.22,0,0,1-39.73,34.92c-29.93-3.82-41.55-41.54-18.59-61.49C472.25,101.64,508.07,117.42,508.07,147.8Z"/><path class="cls-65" d="M483.28,49.91c-1.93,2.85-7.07,9.06-9.13,6.28a2.21,2.21,0,0,1-.43-1.27,1.34,1.34,0,0,0-1.15.74,3.23,3.23,0,0,0,2.89,2.43c3.07,0,7.07-5,8.79-7.53C484.43,50.3,483.71,49.26,483.28,49.91Z"/><g class="cls-69"><path class="cls-70" d="M459.49,160.65l-11.66,11.93a35.05,35.05,0,0,1-8.74-14.77l16.46-3.4Z"/><path class="cls-70" d="M468.34,182.72a34.83,34.83,0,0,1-15-5.64l9.3-17.49,5.57,3.57Z"/><path class="cls-70" d="M468.16,133l-4.59,1.38-13.82-13.14a35,35,0,0,1,16.93-8.1Z"/></g><path class="cls-71" d="M491.43,147.8a18,18,0,1,1-18-18A18,18,0,0,1,491.43,147.8Z"/><path class="cls-72" d="M430.13,82c-.59-12.52-8.5-32-13.32-33.4s-3,8.36-3,8.36,7.48,15.27,8.85,29.35-10.67,45-10.67,45S430.71,94.48,430.13,82ZM417,54.49c0-2.23,2.34-2.23,2.34,0C419.32,55.42,417,56.72,417,54.49Z"/><path class="cls-73" d="M471,137.57l-40.86,16.84s-9.65-1.28-14.72-4.81c-7.07-4.93-11.22-13.64-8.2-17.94L423,98Z"/><path class="cls-74" d="M471,137.57l-40.86,16.84s-9.65-1.28-14.72-4.81c-6.43-4.49-10.08-11.63-9-16.13,20.73,4.41,45.71,7.58,63,2.79Z"/><path class="cls-75" d="M427.45,109.17c-3.66-5.12-5.2-9.27-4-10.82,3.67-4.87,34.3,15,44.6,28.74C484.27,148.72,444.81,133.45,427.45,109.17Z"/><path class="cls-65" d="M421.63,49.91a29.21,29.21,0,0,1-4.56,5.27c.09.23.33.79.75.92a34.89,34.89,0,0,0,4.78-5.54A.58.58,0,0,0,421.63,49.91Z"/><path class="cls-76" d="M443.23,106.21s-4.32,6.82-7.86,12.1c-8.59-8.43-16.44-20.68-10-20.68,3.38,0,9.84,3,17.62,8Z"/><path class="cls-77" d="M453.23,112.06c-10.83-8.2-22.5-15-27.83-15-8.41,0,2.34,17.08,17.55,28.59,10.29,7.78,25.51,15.58,28.86,11.15C474.65,133,466.33,122,453.23,112.06Zm17.65,24c-3.19,4.21-29.44-8.36-42.95-27.26-3.9-5.47-4.83-9.08-4-10.12a1.8,1.8,0,0,1,1.51-.49c.06,0,7-.44,27.12,14.77C466.64,123.67,472.72,133.64,470.88,136.09Z"/></g></g></svg>