<svg xmlns="http://www.w3.org/2000/svg" xmlns:xlink="http://www.w3.org/1999/xlink" viewBox="0 0 104.67 104.67"><defs><style>.cls-1{fill:none;}.cls-2{isolation:isolate;}.cls-3{fill:#f08046;}.cls-4{clip-path:url(#clip-path);}.cls-5{fill:#531a00;}.cls-6{fill:#efbfa5;}.cls-7{fill:#dadada;mix-blend-mode:multiply;}.cls-8{fill:#f39200;}.cls-9{fill:#852d00;}.cls-10{fill:#983302;}</style><clipPath id="clip-path"><path class="cls-1" d="M104.67,52.33A52.34,52.34,0,1,1,52.33,0,52.34,52.34,0,0,1,104.67,52.33Z"/></clipPath></defs><title>Fichier 1</title><g class="cls-2"><g id="Calque_2" data-name="Calque 2"><g id="Capa_1" data-name="Capa 1"><path class="cls-3" d="M104.67,52.33A52.34,52.34,0,1,1,52.33,0,52.34,52.34,0,0,1,104.67,52.33Z"/><g class="cls-4"><polygon class="cls-5" points="69.33 81.36 35.85 81.36 30.02 51.51 72.46 51.51 69.33 81.36"/><rect class="cls-6" x="44.44" y="68.99" width="16.12" height="9.32"/><path class="cls-7" d="M48.94,76.13a14.35,14.35,0,0,0,7.11-2.19A13.29,13.29,0,0,0,60,70.26c.19-.28.4-.6.6-.94V69H44.44v7A33.86,33.86,0,0,0,48.94,76.13Z"/><path class="cls-6" d="M72.46,43.63c0-14.93-8.95-23.52-20-23.59h-.23c-11.07.07-20,8.66-20,23.59C32.2,63,46.15,74.29,52.31,74.34h0C58.52,74.29,72.46,63,72.46,43.63Z"/><path class="cls-6" d="M70.48,49.16,69.33,58c4.51,2,5.22-8.37,5.22-8.37C73.51,47,70.48,49.16,70.48,49.16Z"/><path class="cls-6" d="M30.62,49.59S31.33,60,35.85,58l-1.15-8.8S31.67,47,30.62,49.59Z"/><path class="cls-6" d="M44.37,77.59,25,83.59a11.31,11.31,0,0,0-8.52,8.27l-3,12.81H91.17l-3-12.81a11.29,11.29,0,0,0-8.52-8.27l-19.39-6Z"/><path class="cls-8" d="M74.77,93.53l1.35-11.1L71.64,81s-3.39,15.12-19.2,17.51C36.63,96.16,33.24,81,33.24,81l-4.49,1.39,1.35,11.1s-2.58,6.14-1.47,11.14H76.25C77.35,99.67,74.77,93.53,74.77,93.53Z"/><path class="cls-9" d="M42.81,26.39s3.43,10.5,19.67,16c0,0,12.38,1.54,14,6.64,0,0,3.87-16.92-4.06-25.72,0,0-12.81-15.84-29.65-3.29C42.81,20,39.72,21.24,42.81,26.39Z"/><path class="cls-9" d="M42.6,20.77S23.49,24.59,32.37,48.32c0,0,1.17-17.53,12.85-17.66Z"/><path class="cls-9" d="M39.62,81.37S24,78.79,26.07,56.1c0,0,.59-25.94,8.77-30l1.36,9.79S30,54.72,39.62,81.37Z"/><path class="cls-9" d="M67.38,81.37S83,78.79,80.93,56.1c0,0-.6-25.94-8.77-30L69.36,35S74.45,66.49,67.38,81.37Z"/><path class="cls-10" d="M45.24,19.81c-.68,1.68.21,4.19.4,6.05.77-.29.88-1.34,1.63-1.8.59,1.15,1,2.47,1.65,3.66,1,1.94,2.95,5.29,4.8,6.48.53-.72.33-1.64.4-2.55a39,39,0,0,0,4.16,4.71c-.07-.5.12-1.11.07-1.62,1.92,1,3.23,3.68,5.28,4.38-.08-.53.21-1,.25-1.43,1.31.89,2.62,2.46,4,3.07.74.34,2.2.17,2.82.9,0-1.27-.27-3.26-1.27-4a6,6,0,0,1-.21.93,9.86,9.86,0,0,0-1.45-1.86l-.06.72c-.1-.2-.58-.73-.71-1a8.13,8.13,0,0,0-.21.85c-.65-.66-1.06-2.08-2.2-2.18,0,.28-.32,1.07-.3,1.26-.23-1-.91-2.48-2.09-2.55,0,.25-.34.79-.35,1a7.42,7.42,0,0,0-.69-1.48c-.16.11-.27.24-.42.34-.66-1.31-.52-3.12-1.29-4.32a3.83,3.83,0,0,0-.37,1.83,3.24,3.24,0,0,0-.73-1.63c-.08.21-.47.65-.56.91-.39-.81-1.16-3.18-1.69-1.07a9.32,9.32,0,0,1-.74-1.65c-.14.35-.74,1-.88,1.28-.3-.94-.94-2.63-1.8-1.29a3.34,3.34,0,0,0-.93-2,6.83,6.83,0,0,1-.18,1.65,4.58,4.58,0,0,0-1-2.9,4.16,4.16,0,0,0-.18,1.38,4.73,4.73,0,0,0-.6-2.71c-.15.05-.11.26-.14.27-.08-1.55-.93-2.22-1.65-3.2-.21,0-.35.11-.56.14-.16-.39-.51-.59-.69-.89a11.67,11.67,0,0,0-.27,1.41c-.17-.75-.56-1.16-1.25-.87"/><path class="cls-10" d="M42.11,24.59c-.4.78.34,2.57.75,3.44a1.33,1.33,0,0,0-1.27-1.2,7.18,7.18,0,0,0,0,1.39c-.26-.66-.56-.55-.94-.84a5,5,0,0,0-.2,1.79,9,9,0,0,1-1.46-.5c-.22.61-.14,1.35-.35,2-.25-.31-.53-.33-.72-.48.19,1-.55,1.13-.76,1.62a18.49,18.49,0,0,0-1,2.58c-.23-.49-.66-1-.93-1.46A13.72,13.72,0,0,0,34.9,36a.48.48,0,0,0-.3-.11c-.1.66-.26,1.33-.4,2-.09-.41-.31-.8-.39-1.2-.08.76-.2,1.56-.21,2.33a6.75,6.75,0,0,0-.66-.33,9.21,9.21,0,0,0-.22,2c0,.14,0,.14,0,0s0-.21-.15-.18a7.49,7.49,0,0,1-.36,1.45A13,13,0,0,1,31,39a.12.12,0,0,0-.15.09,9.31,9.31,0,0,1,0-1.75c.18,0,.31.12.49.15a4.45,4.45,0,0,0,.21-1.92,5.89,5.89,0,0,0,.15.82A5.53,5.53,0,0,1,32,34.93c.24.11.8,0,1,.14a7.7,7.7,0,0,1,.44-2.73c.09.14.42.4.51.52a4.53,4.53,0,0,0,.22-.88c.08,0,.25.2.28.15a6.47,6.47,0,0,1,.6-1.67c.16.3.72.66.88.94.18-.73.25-1.43.46-2.15.07.15.1.35.18.49a9.1,9.1,0,0,1,.87-2.18,4.44,4.44,0,0,1,.52.15c.13-.45.61-.77.77-1.12.18.16.6.26.75.39.13-.42.6-.85.73-1.26.2,0,.16.14.33.14.13-.49.39-.48.78-.71"/></g></g></g></g></svg>