<?xml version="1.0" encoding="iso-8859-1"?>
<!-- Generator: Adobe Illustrator 16.0.0, SVG Export Plug-In . SVG Version: 6.00 Build 0)  -->
<!DOCTYPE svg PUBLIC "-//W3C//DTD SVG 1.1//EN" "http://www.w3.org/Graphics/SVG/1.1/DTD/svg11.dtd">
<svg version="1.1" id="Capa_1" xmlns="http://www.w3.org/2000/svg" xmlns:xlink="http://www.w3.org/1999/xlink" x="0px" y="0px"
	 width="451.363px" height="451.363px" viewBox="0 0 451.363 451.363" style="enable-background:new 0 0 451.363 451.363;"
	 xml:space="preserve">
<g>
	<g id="Layer_3_13_">
		<g>
			<g>
				<g>
					<g>
						<g>
							<path d="M225.682,441.922c-1.473,0-2.945-0.325-4.308-0.976l-11.467-5.473c-5.659-2.7-56.77-27.656-107.478-71.612
								c-29.648-25.699-53.279-52.875-70.238-80.77C10.831,247.957,0,211.543,0,174.859c0-43.036,14.379-83.769,40.487-114.697
								C68.102,27.455,105.348,9.441,145.364,9.441c28.427,0,56.65,9.698,80.318,27.458C249.35,19.139,277.574,9.441,306,9.441
								c40.016,0,77.26,18.013,104.873,50.72c26.109,30.927,40.49,71.661,40.49,114.698c0,36.684-10.832,73.1-32.191,108.233
								c-16.959,27.894-40.59,55.069-70.238,80.769c-50.693,43.943-101.815,68.91-107.479,71.612l-11.466,5.473
								C228.627,441.597,227.155,441.922,225.682,441.922z M145.364,29.441c-34.025,0-65.844,15.492-89.594,43.623
								C32.704,100.389,20,136.541,20,174.859c0,60.437,32.141,118.941,95.53,173.891c49.557,42.958,100.832,67.644,102.99,68.674
								l7.161,3.417l7.159-3.417c2.16-1.03,53.449-25.729,102.992-68.674c63.389-54.949,95.529-113.454,95.529-173.891
								c0-38.32-12.703-74.472-35.77-101.796c-23.75-28.13-55.568-43.622-89.592-43.622c-26.725,0-52.268,9.64-73.867,27.877
								c-3.728,3.146-9.177,3.146-12.903,0C197.629,39.082,172.086,29.441,145.364,29.441z"/>
						</g>
					</g>
				</g>
			</g>
			<g>
				<g>
					<g>
						<path d="M225.682,385.525c-1.653,0-3.308-0.41-4.804-1.229c-21.025-11.517-61.699-35.993-97.867-70.53
							c-46.289-44.201-69.759-89.878-69.759-135.762c0-61.849,41.321-112.167,92.111-112.167c38.333,0,66.79,30.932,80.318,49.317
							C239.209,96.77,267.666,65.838,306,65.838c50.789,0,92.109,50.318,92.109,112.167c0,45.884-23.469,91.561-69.758,135.762
							c-36.168,34.537-76.842,59.014-97.867,70.53C228.99,385.116,227.335,385.525,225.682,385.525z M145.364,85.838
							c-39.763,0-72.111,41.346-72.111,92.167c0,91.427,110.932,162.659,152.43,186.079c41.499-23.42,152.43-94.652,152.43-186.079
							c0-50.821-32.35-92.167-72.111-92.167c-41.794,0-71.302,51.792-71.595,52.314c-1.769,3.157-5.104,5.111-8.724,5.111
							c-3.619,0-6.955-1.955-8.724-5.111C216.67,137.641,186.978,85.838,145.364,85.838z"/>
					</g>
				</g>
			</g>
		</g>
	</g>
</g>
<g>
</g>
<g>
</g>
<g>
</g>
<g>
</g>
<g>
</g>
<g>
</g>
<g>
</g>
<g>
</g>
<g>
</g>
<g>
</g>
<g>
</g>
<g>
</g>
<g>
</g>
<g>
</g>
<g>
</g>
</svg>
